<svg xmlns="http://www.w3.org/2000/svg" xmlns:xlink="http://www.w3.org/1999/xlink" contentStyleType="text/css" data-diagram-type="ACTIVITY" height="1352px" preserveAspectRatio="none" style="width:1894px;height:1352px;background:#FFFFFF;" version="1.1" viewBox="0 0 1894 1352" width="1894px" zoomAndPan="magnify"><title>AI Mirror - System Activity Diagram</title><defs/><g><g class="title" data-source-line="2"><text fill="#000000" font-family="sans-serif" font-size="14" font-weight="bold" lengthAdjust="spacing" textLength="280.7998" x="805.4736" y="32.9951">AI Mirror - System Activity Diagram</text></g><ellipse cx="1265.8212" cy="57.2969" fill="#222222" rx="10" ry="10" style="stroke:#222222;stroke-width:1;"/><rect fill="#F1F1F1" height="33.9688" rx="3.5" ry="3.5" style="stroke:#181818;stroke-width:0.5;" width="180.8809" x="1175.3807" y="87.2969"/><text fill="#000000" font-family="sans-serif" font-size="12" lengthAdjust="spacing" textLength="160.8809" x="1185.3807" y="108.4355">User opens the application</text><polygon fill="#F1F1F1" points="1171.2845,141.2656,1360.3578,141.2656,1372.3578,153.2656,1360.3578,165.2656,1171.2845,165.2656,1159.2845,153.2656,1171.2845,141.2656" style="stroke:#181818;stroke-width:0.5;"/><text fill="#000000" font-family="sans-serif" font-size="11" lengthAdjust="spacing" textLength="189.0732" x="1171.2845" y="157.0737">Choose Persona Creation Method?</text><text fill="#000000" font-family="sans-serif" font-size="11" lengthAdjust="spacing" textLength="19.0083" x="1140.2762" y="150.6714">yes</text><text fill="#000000" font-family="sans-serif" font-size="11" lengthAdjust="spacing" textLength="100.2622" x="1372.3578" y="150.6714">no, select existing</text><rect fill="none" height="337.5542" rx="3.5" ry="3.5" style="stroke:#000000;stroke-width:1.5;" width="1588.3384" x="11" y="175.2656"/><path d="M184.2422,175.2656 L184.2422,184.5625 L174.2422,194.5625 L11,194.5625" fill="none" style="stroke:#000000;stroke-width:1.5;"/><text fill="#000000" font-family="sans-serif" font-size="14" lengthAdjust="spacing" textLength="163.2422" x="14" y="189.2607">Persona Creation Paths</text><polygon fill="#F1F1F1" points="62.9121,229.2344,189.4766,229.2344,201.4766,241.2344,189.4766,253.2344,62.9121,253.2344,50.9121,241.2344,62.9121,229.2344" style="stroke:#181818;stroke-width:0.5;"/><text fill="#000000" font-family="sans-serif" font-size="11" lengthAdjust="spacing" textLength="19.0083" x="130.1943" y="263.4448">yes</text><text fill="#000000" font-family="sans-serif" font-size="11" lengthAdjust="spacing" textLength="126.5645" x="62.9121" y="245.0425">Manual Questionnaire?</text><rect fill="#F1F1F1" height="33.9688" rx="3.5" ry="3.5" style="stroke:#181818;stroke-width:0.5;" width="180.4707" x="35.959" y="284.9448"/><text fill="#000000" font-family="sans-serif" font-size="12" lengthAdjust="spacing" textLength="160.4707" x="45.959" y="306.0835">Fill out Questionnaire form</text><rect fill="#F1F1F1" height="33.9688" rx="3.5" ry="3.5" style="stroke:#181818;stroke-width:0.5;" width="210.3887" x="21" y="338.9136"/><text fill="#000000" font-family="sans-serif" font-size="12" lengthAdjust="spacing" textLength="190.3887" x="31" y="360.0522">Enter Bio and answer questions</text><path d="M228.6074,397.3003 L228.6074,405.8667 L208.6074,409.8667 L228.6074,413.8667 L228.6074,422.4331 A0,0 0 0 0 228.6074,422.4331 L380.4136,422.4331 A0,0 0 0 0 380.4136,422.4331 L380.4136,407.3003 L370.4136,397.3003 L228.6074,397.3003 A0,0 0 0 0 228.6074,397.3003" fill="#7FFFD4" style="stroke:#454645;stroke-width:1.5;"/><path d="M370.4136,397.3003 L370.4136,407.3003 L380.4136,407.3003 L370.4136,397.3003" fill="#7FFFD4" style="stroke:#454645;stroke-width:1.5;"/><text fill="#454645" font-family="sans-serif" font-size="13" lengthAdjust="spacing" textLength="130.8062" x="234.6074" y="414.3672">API Call: /store_data</text><rect fill="#F1F1F1" height="33.9688" rx="3.5" ry="3.5" style="stroke:#181818;stroke-width:0.5;" width="164.8262" x="43.7813" y="392.8823"/><text fill="#000000" font-family="sans-serif" font-size="12" lengthAdjust="spacing" textLength="144.8262" x="53.7813" y="414.021">Submit data to Backend</text><polygon fill="#F1F1F1" points="500.5801,229.2344,631.8818,229.2344,643.8818,241.2344,631.8818,253.2344,500.5801,253.2344,488.5801,241.2344,500.5801,229.2344" style="stroke:#181818;stroke-width:0.5;"/><text fill="#000000" font-family="sans-serif" font-size="11" lengthAdjust="spacing" textLength="19.0083" x="570.231" y="263.4448">yes</text><text fill="#000000" font-family="sans-serif" font-size="11" lengthAdjust="spacing" textLength="131.3018" x="500.5801" y="245.0425">Import from WhatsApp?</text><rect fill="#F1F1F1" height="33.9688" rx="3.5" ry="3.5" style="stroke:#181818;stroke-width:0.5;" width="239.9961" x="446.2329" y="284.9448"/><text fill="#000000" font-family="sans-serif" font-size="12" lengthAdjust="spacing" textLength="219.9961" x="456.2329" y="306.0835">Scan QR Code from Node.js terminal</text><rect fill="#F1F1F1" height="33.9688" rx="3.5" ry="3.5" style="stroke:#181818;stroke-width:0.5;" width="175.2148" x="478.6235" y="338.9136"/><text fill="#000000" font-family="sans-serif" font-size="12" lengthAdjust="spacing" textLength="155.2148" x="488.6235" y="360.0522">Select a chat from the list</text><rect fill="#F1F1F1" height="33.9688" rx="3.5" ry="3.5" style="stroke:#181818;stroke-width:0.5;" width="225.541" x="453.4604" y="392.8823"/><text fill="#000000" font-family="sans-serif" font-size="12" lengthAdjust="spacing" textLength="205.541" x="463.4604" y="414.021">App fetches messages via Node.js</text><path d="M762.0483,451.269 L762.0483,459.8354 L742.0483,463.8354 L762.0483,467.8354 L762.0483,476.4019 A0,0 0 0 0 762.0483,476.4019 L1017.8354,476.4019 A0,0 0 0 0 1017.8354,476.4019 L1017.8354,461.269 L1007.8354,451.269 L762.0483,451.269 A0,0 0 0 0 762.0483,451.269" fill="#7FFFD4" style="stroke:#454645;stroke-width:1.5;"/><path d="M1007.8354,451.269 L1007.8354,461.269 L1017.8354,461.269 L1007.8354,451.269" fill="#7FFFD4" style="stroke:#454645;stroke-width:1.5;"/><text fill="#454645" font-family="sans-serif" font-size="13" lengthAdjust="spacing" textLength="234.7871" x="768.0483" y="468.3359">API Call: /preprocessing_whats_data</text><rect fill="#F1F1F1" height="33.9688" rx="3.5" ry="3.5" style="stroke:#181818;stroke-width:0.5;" width="351.6348" x="390.4136" y="446.8511"/><text fill="#000000" font-family="sans-serif" font-size="12" lengthAdjust="spacing" textLength="331.6348" x="400.4136" y="467.9897">App sends messages to Python backend for processing</text><polygon fill="#F1F1F1" points="1100.1169,229.2344,1227.5676,229.2344,1239.5676,241.2344,1227.5676,253.2344,1100.1169,253.2344,1088.1169,241.2344,1100.1169,229.2344" style="stroke:#181818;stroke-width:0.5;"/><text fill="#000000" font-family="sans-serif" font-size="11" lengthAdjust="spacing" textLength="19.0083" x="1167.8423" y="263.4448">yes</text><text fill="#000000" font-family="sans-serif" font-size="11" lengthAdjust="spacing" textLength="127.4507" x="1100.1169" y="245.0425">Import from Telegram?</text><rect fill="#F1F1F1" height="33.9688" rx="3.5" ry="3.5" style="stroke:#181818;stroke-width:0.5;" width="252.0137" x="1037.8354" y="284.9448"/><text fill="#000000" font-family="sans-serif" font-size="12" lengthAdjust="spacing" textLength="232.0137" x="1047.8354" y="306.0835">Login with Phone, Code, and Password</text><rect fill="#F1F1F1" height="33.9688" rx="3.5" ry="3.5" style="stroke:#181818;stroke-width:0.5;" width="175.2148" x="1076.2349" y="338.9136"/><text fill="#000000" font-family="sans-serif" font-size="12" lengthAdjust="spacing" textLength="155.2148" x="1086.2349" y="360.0522">Select a chat from the list</text><path d="M1307.9771,397.3003 L1307.9771,405.8667 L1287.9771,409.8667 L1307.9771,413.8667 L1307.9771,422.4331 A0,0 0 0 0 1307.9771,422.4331 L1539.3384,422.4331 A0,0 0 0 0 1539.3384,422.4331 L1539.3384,407.3003 L1529.3384,397.3003 L1307.9771,397.3003 A0,0 0 0 0 1307.9771,397.3003" fill="#7FFFD4" style="stroke:#454645;stroke-width:1.5;"/><path d="M1529.3384,397.3003 L1529.3384,407.3003 L1539.3384,407.3003 L1529.3384,397.3003" fill="#7FFFD4" style="stroke:#454645;stroke-width:1.5;"/><text fill="#454645" font-family="sans-serif" font-size="13" lengthAdjust="spacing" textLength="210.3613" x="1313.9771" y="414.3672">API Call: /telegram/process_chat</text><rect fill="#F1F1F1" height="33.9688" rx="3.5" ry="3.5" style="stroke:#181818;stroke-width:0.5;" width="248.2695" x="1039.7075" y="392.8823"/><text fill="#000000" font-family="sans-serif" font-size="12" lengthAdjust="spacing" textLength="228.2695" x="1049.7075" y="414.021">App sends request to Python backend</text><rect fill="#F1F1F1" height="33.9688" rx="3.5" ry="3.5" style="stroke:#181818;stroke-width:0.5;" width="446.9141" x="576.7122" y="532.8198"/><text fill="#000000" font-family="sans-serif" font-size="12" lengthAdjust="spacing" textLength="426.9141" x="586.7122" y="553.9585">Backend processes data, generates profile, and creates FAISS memory</text><rect fill="#F1F1F1" height="33.9688" rx="3.5" ry="3.5" style="stroke:#181818;stroke-width:0.5;" width="186.8691" x="706.7346" y="586.7886"/><text fill="#000000" font-family="sans-serif" font-size="12" lengthAdjust="spacing" textLength="166.8691" x="716.7346" y="607.9272">App saves Character locally</text><rect fill="#F1F1F1" height="33.9688" rx="3.5" ry="3.5" style="stroke:#181818;stroke-width:0.5;" width="224.2695" x="1619.3384" y="175.2656"/><text fill="#000000" font-family="sans-serif" font-size="12" lengthAdjust="spacing" textLength="204.2695" x="1629.3384" y="196.4043">User selects an existing character</text><polygon fill="#F1F1F1" points="1265.8212,626.7573,1277.8212,638.7573,1265.8212,650.7573,1253.8212,638.7573,1265.8212,626.7573" style="stroke:#181818;stroke-width:0.5;"/><rect fill="#F1F1F1" height="33.9688" rx="3.5" ry="3.5" style="stroke:#181818;stroke-width:0.5;" width="236.3984" x="1147.6219" y="670.7573"/><text fill="#000000" font-family="sans-serif" font-size="12" lengthAdjust="spacing" textLength="216.3984" x="1157.6219" y="691.896">Navigate to Main Interaction Screen</text><rect fill="#555555" height="6" rx="2.5" ry="2.5" style="stroke:#555555;stroke-width:1;" width="1245.8516" x="637.8954" y="724.7261"/><rect fill="#F1F1F1" height="33.9688" rx="3.5" ry="3.5" style="stroke:#181818;stroke-width:0.5;" width="162.0488" x="731.577" y="785.2104"/><text fill="#000000" font-family="sans-serif" font-size="12" lengthAdjust="spacing" textLength="73.0723" x="741.577" y="806.3491">User selects</text><text fill="#000000" font-family="sans-serif" font-size="12" font-weight="bold" lengthAdjust="spacing" textLength="65.1621" x="818.4637" y="806.3491">Text Chat</text><rect fill="#F1F1F1" height="33.9688" rx="3.5" ry="3.5" style="stroke:#181818;stroke-width:0.5;" width="234.9922" x="695.1053" y="926.1792"/><text fill="#000000" font-family="sans-serif" font-size="12" lengthAdjust="spacing" textLength="214.9922" x="705.1053" y="947.3179">User types and sends text message</text><rect fill="#F1F1F1" height="33.9688" rx="3.5" ry="3.5" style="stroke:#181818;stroke-width:0.5;" width="177.2715" x="723.9657" y="995.1479"/><text fill="#000000" font-family="sans-serif" font-size="12" lengthAdjust="spacing" textLength="157.2715" x="733.9657" y="1016.2866">App calls `/chat` endpoint</text><rect fill="#F1F1F1" height="33.9688" rx="3.5" ry="3.5" style="stroke:#181818;stroke-width:0.5;" width="321.4121" x="651.8954" y="1064.1167"/><text fill="#000000" font-family="sans-serif" font-size="12" lengthAdjust="spacing" textLength="301.4121" x="661.8954" y="1085.2554">Backend performs RAG search and gets LLM reply</text><rect fill="#F1F1F1" height="33.9688" rx="3.5" ry="3.5" style="stroke:#181818;stroke-width:0.5;" width="158.0117" x="733.5956" y="1133.0854"/><text fill="#000000" font-family="sans-serif" font-size="12" lengthAdjust="spacing" textLength="138.0117" x="743.5956" y="1154.2241">App displays text reply</text><polygon fill="#F1F1F1" points="812.6014,854.1792,824.6014,866.1792,812.6014,878.1792,800.6014,866.1792,812.6014,854.1792" style="stroke:#181818;stroke-width:0.5;"/><polygon fill="#F1F1F1" points="754.8326,1215.0542,870.3702,1215.0542,882.3702,1227.0542,870.3702,1239.0542,754.8326,1239.0542,742.8326,1227.0542,754.8326,1215.0542" style="stroke:#181818;stroke-width:0.5;"/><text fill="#000000" font-family="sans-serif" font-size="11" lengthAdjust="spacing" textLength="115.5376" x="754.8326" y="1230.8623">User continues chat?</text><text fill="#000000" font-family="sans-serif" font-size="11" lengthAdjust="spacing" textLength="19.0083" x="882.3702" y="1224.46">yes</text><rect fill="#F1F1F1" height="33.9688" rx="3.5" ry="3.5" style="stroke:#181818;stroke-width:0.5;" width="197.1523" x="1141.0946" y="785.2104"/><text fill="#000000" font-family="sans-serif" font-size="12" lengthAdjust="spacing" textLength="73.0723" x="1151.0946" y="806.3491">User selects</text><text fill="#000000" font-family="sans-serif" font-size="12" font-weight="bold" lengthAdjust="spacing" textLength="100.2656" x="1227.9813" y="806.3491">Voice Message</text><rect fill="#F1F1F1" height="33.9688" rx="3.5" ry="3.5" style="stroke:#181818;stroke-width:0.5;" width="254.8555" x="1112.243" y="926.1792"/><text fill="#000000" font-family="sans-serif" font-size="12" lengthAdjust="spacing" textLength="234.8555" x="1122.243" y="947.3179">User records and sends voice message</text><rect fill="#F1F1F1" height="33.9688" rx="3.5" ry="3.5" style="stroke:#181818;stroke-width:0.5;" width="265.7012" x="1106.8202" y="995.1479"/><text fill="#000000" font-family="sans-serif" font-size="12" lengthAdjust="spacing" textLength="245.7012" x="1116.8202" y="1016.2866">App calls `/chat` endpoint with audio file</text><rect fill="#F1F1F1" height="33.9688" rx="3.5" ry="3.5" style="stroke:#181818;stroke-width:0.5;" width="428.7266" x="1025.3075" y="1064.1167"/><text fill="#000000" font-family="sans-serif" font-size="12" lengthAdjust="spacing" textLength="408.7266" x="1035.3075" y="1085.2554">Backend transcribes audio (Whisper), performs RAG, gets LLM reply</text><rect fill="#F1F1F1" height="33.9688" rx="3.5" ry="3.5" style="stroke:#181818;stroke-width:0.5;" width="386.8613" x="1046.2401" y="1133.0854"/><text fill="#000000" font-family="sans-serif" font-size="12" lengthAdjust="spacing" textLength="366.8613" x="1056.2401" y="1154.2241">App displays user's transcribed message and bot's text reply</text><polygon fill="#F1F1F1" points="1239.6708,854.1792,1251.6708,866.1792,1239.6708,878.1792,1227.6708,866.1792,1239.6708,854.1792" style="stroke:#181818;stroke-width:0.5;"/><polygon fill="#F1F1F1" points="1181.902,1215.0542,1297.4396,1215.0542,1309.4396,1227.0542,1297.4396,1239.0542,1181.902,1239.0542,1169.902,1227.0542,1181.902,1215.0542" style="stroke:#181818;stroke-width:0.5;"/><text fill="#000000" font-family="sans-serif" font-size="11" lengthAdjust="spacing" textLength="115.5376" x="1181.902" y="1230.8623">User continues chat?</text><text fill="#000000" font-family="sans-serif" font-size="11" lengthAdjust="spacing" textLength="19.0083" x="1309.4396" y="1224.46">yes</text><rect fill="#F1F1F1" height="33.9688" rx="3.5" ry="3.5" style="stroke:#181818;stroke-width:0.5;" width="163.0918" x="1599.3446" y="750.7261"/><text fill="#000000" font-family="sans-serif" font-size="12" lengthAdjust="spacing" textLength="73.0723" x="1609.3446" y="771.8647">User selects</text><text fill="#000000" font-family="sans-serif" font-size="12" font-weight="bold" lengthAdjust="spacing" textLength="66.2051" x="1686.2313" y="771.8647">Voice Call</text><rect fill="#F1F1F1" height="33.9688" rx="3.5" ry="3.5" style="stroke:#181818;stroke-width:0.5;" width="252.7813" x="1554.4999" y="891.6948"/><text fill="#000000" font-family="sans-serif" font-size="12" lengthAdjust="spacing" textLength="232.7813" x="1564.4999" y="912.8335">User records voice input in Call Screen</text><rect fill="#F1F1F1" height="33.9688" rx="3.5" ry="3.5" style="stroke:#181818;stroke-width:0.5;" width="260.0586" x="1550.8612" y="960.6636"/><text fill="#000000" font-family="sans-serif" font-size="12" lengthAdjust="spacing" textLength="240.0586" x="1560.8612" y="981.8022">App calls `/call` endpoint with audio file</text><rect fill="#F1F1F1" height="33.9688" rx="3.5" ry="3.5" style="stroke:#181818;stroke-width:0.5;" width="349.7129" x="1506.0341" y="1029.6323"/><text fill="#000000" font-family="sans-serif" font-size="12" lengthAdjust="spacing" textLength="329.7129" x="1516.0341" y="1050.771">Backend performs full loop: STT -&gt; RAG -&gt; LLM -&gt; TTS</text><rect fill="#F1F1F1" height="33.9688" rx="3.5" ry="3.5" style="stroke:#181818;stroke-width:0.5;" width="236.709" x="1562.536" y="1098.6011"/><text fill="#000000" font-family="sans-serif" font-size="12" lengthAdjust="spacing" textLength="216.709" x="1572.536" y="1119.7397">Backend returns audio file response</text><rect fill="#F1F1F1" height="33.9688" rx="3.5" ry="3.5" style="stroke:#181818;stroke-width:0.5;" width="194.5215" x="1583.6298" y="1167.5698"/><text fill="#000000" font-family="sans-serif" font-size="12" lengthAdjust="spacing" textLength="174.5215" x="1593.6298" y="1188.7085">App plays voice reply to user</text><polygon fill="#F1F1F1" points="1680.8905,819.6948,1692.8905,831.6948,1680.8905,843.6948,1668.8905,831.6948,1680.8905,819.6948" style="stroke:#181818;stroke-width:0.5;"/><polygon fill="#F1F1F1" points="1625.7079,1249.5386,1736.0731,1249.5386,1748.0731,1261.5386,1736.0731,1273.5386,1625.7079,1273.5386,1613.7079,1261.5386,1625.7079,1249.5386" style="stroke:#181818;stroke-width:0.5;"/><text fill="#000000" font-family="sans-serif" font-size="11" lengthAdjust="spacing" textLength="110.3652" x="1625.7079" y="1265.3467">User continues call?</text><text fill="#000000" font-family="sans-serif" font-size="11" lengthAdjust="spacing" textLength="19.0083" x="1748.0731" y="1258.9443">yes</text><rect fill="#555555" height="6" rx="2.5" ry="2.5" style="stroke:#555555;stroke-width:1;" width="1245.8516" x="637.8954" y="1293.5386"/><ellipse cx="1265.8212" cy="1330.5386" fill="none" rx="11" ry="11" style="stroke:#222222;stroke-width:1;"/><ellipse cx="1265.8212" cy="1330.5386" fill="#222222" rx="6" ry="6" style="stroke:#222222;stroke-width:1;"/><line style="stroke:#454645;stroke-width:1;" x1="1265.8212" x2="1265.8212" y1="67.2969" y2="87.2969"/><polygon fill="#454645" points="1261.8212,77.2969,1265.8212,87.2969,1269.8212,77.2969,1265.8212,81.2969" style="stroke:#454645;stroke-width:1;"/><line style="stroke:#454645;stroke-width:1;" x1="126.1943" x2="126.1943" y1="318.9136" y2="338.9136"/><polygon fill="#454645" points="122.1943,328.9136,126.1943,338.9136,130.1943,328.9136,126.1943,332.9136" style="stroke:#454645;stroke-width:1;"/><line style="stroke:#454645;stroke-width:1;" x1="126.1943" x2="126.1943" y1="372.8823" y2="392.8823"/><polygon fill="#454645" points="122.1943,382.8823,126.1943,392.8823,130.1943,382.8823,126.1943,386.8823" style="stroke:#454645;stroke-width:1;"/><line style="stroke:#454645;stroke-width:1;" x1="566.231" x2="566.231" y1="318.9136" y2="338.9136"/><polygon fill="#454645" points="562.231,328.9136,566.231,338.9136,570.231,328.9136,566.231,332.9136" style="stroke:#454645;stroke-width:1;"/><line style="stroke:#454645;stroke-width:1;" x1="566.231" x2="566.231" y1="372.8823" y2="392.8823"/><polygon fill="#454645" points="562.231,382.8823,566.231,392.8823,570.231,382.8823,566.231,386.8823" style="stroke:#454645;stroke-width:1;"/><line style="stroke:#454645;stroke-width:1;" x1="566.231" x2="566.231" y1="426.8511" y2="446.8511"/><polygon fill="#454645" points="562.231,436.8511,566.231,446.8511,570.231,436.8511,566.231,440.8511" style="stroke:#454645;stroke-width:1;"/><line style="stroke:#454645;stroke-width:1;" x1="1163.8423" x2="1163.8423" y1="318.9136" y2="338.9136"/><polygon fill="#454645" points="1159.8423,328.9136,1163.8423,338.9136,1167.8423,328.9136,1163.8423,332.9136" style="stroke:#454645;stroke-width:1;"/><line style="stroke:#454645;stroke-width:1;" x1="1163.8423" x2="1163.8423" y1="372.8823" y2="392.8823"/><polygon fill="#454645" points="1159.8423,382.8823,1163.8423,392.8823,1167.8423,382.8823,1163.8423,386.8823" style="stroke:#454645;stroke-width:1;"/><line style="stroke:#454645;stroke-width:1;" x1="126.1943" x2="126.1943" y1="253.2344" y2="284.9448"/><polygon fill="#454645" points="122.1943,274.9448,126.1943,284.9448,130.1943,274.9448,126.1943,278.9448" style="stroke:#454645;stroke-width:1;"/><line style="stroke:#454645;stroke-width:1;" x1="126.1943" x2="126.1943" y1="426.8511" y2="500.8198"/><polygon fill="#454645" points="122.1943,490.8198,126.1943,500.8198,130.1943,490.8198,126.1943,494.8198" style="stroke:#454645;stroke-width:1;"/><line style="stroke:#454645;stroke-width:1;" x1="566.231" x2="566.231" y1="253.2344" y2="284.9448"/><polygon fill="#454645" points="562.231,274.9448,566.231,284.9448,570.231,274.9448,566.231,278.9448" style="stroke:#454645;stroke-width:1;"/><line style="stroke:#454645;stroke-width:1;" x1="566.231" x2="566.231" y1="480.8198" y2="500.8198"/><polygon fill="#454645" points="562.231,490.8198,566.231,500.8198,570.231,490.8198,566.231,494.8198" style="stroke:#454645;stroke-width:1;"/><line style="stroke:#454645;stroke-width:1;" x1="1163.8423" x2="1163.8423" y1="253.2344" y2="284.9448"/><polygon fill="#454645" points="1159.8423,274.9448,1163.8423,284.9448,1167.8423,274.9448,1163.8423,278.9448" style="stroke:#454645;stroke-width:1;"/><line style="stroke:#454645;stroke-width:1;" x1="1163.8423" x2="1163.8423" y1="426.8511" y2="500.8198"/><polygon fill="#454645" points="1159.8423,490.8198,1163.8423,500.8198,1167.8423,490.8198,1163.8423,494.8198" style="stroke:#454645;stroke-width:1;"/><line style="stroke:#454645;stroke-width:1;" x1="201.4766" x2="488.5801" y1="241.2344" y2="241.2344"/><polygon fill="#454645" points="478.5801,237.2344,488.5801,241.2344,478.5801,245.2344,482.5801,241.2344" style="stroke:#454645;stroke-width:1;"/><line style="stroke:#454645;stroke-width:1;" x1="643.8818" x2="1088.1169" y1="241.2344" y2="241.2344"/><polygon fill="#454645" points="1078.1169,237.2344,1088.1169,241.2344,1078.1169,245.2344,1082.1169,241.2344" style="stroke:#454645;stroke-width:1;"/><line style="stroke:#454645;stroke-width:1;" x1="1159.2845" x2="126.1943" y1="153.2656" y2="153.2656"/><line style="stroke:#454645;stroke-width:1;" x1="126.1943" x2="126.1943" y1="153.2656" y2="229.2344"/><polygon fill="#454645" points="122.1943,219.2344,126.1943,229.2344,130.1943,219.2344,126.1943,223.2344" style="stroke:#454645;stroke-width:1;"/><line style="stroke:#454645;stroke-width:1;" x1="1239.5676" x2="1574.3384" y1="241.2344" y2="241.2344"/><line style="stroke:#454645;stroke-width:1;" x1="1574.3384" x2="1574.3384" y1="241.2344" y2="500.8198"/><polygon fill="#454645" points="1570.3384,490.8198,1574.3384,500.8198,1578.3384,490.8198,1574.3384,494.8198" style="stroke:#454645;stroke-width:1;"/><line style="stroke:#454645;stroke-width:1;" x1="126.1943" x2="1574.3384" y1="500.8198" y2="500.8198"/><line style="stroke:#454645;stroke-width:1;" x1="800.1692" x2="800.1692" y1="500.8198" y2="532.8198"/><polygon fill="#454645" points="796.1692,522.8198,800.1692,532.8198,804.1692,522.8198,800.1692,526.8198" style="stroke:#454645;stroke-width:1;"/><line style="stroke:#454645;stroke-width:1;" x1="800.1692" x2="800.1692" y1="566.7886" y2="586.7886"/><polygon fill="#454645" points="796.1692,576.7886,800.1692,586.7886,804.1692,576.7886,800.1692,580.7886" style="stroke:#454645;stroke-width:1;"/><line style="stroke:#454645;stroke-width:1;" x1="1372.3578" x2="1731.4731" y1="153.2656" y2="153.2656"/><line style="stroke:#454645;stroke-width:1;" x1="1731.4731" x2="1731.4731" y1="153.2656" y2="175.2656"/><polygon fill="#454645" points="1727.4731,165.2656,1731.4731,175.2656,1735.4731,165.2656,1731.4731,169.2656" style="stroke:#454645;stroke-width:1;"/><line style="stroke:#454645;stroke-width:1;" x1="800.1692" x2="800.1692" y1="620.7573" y2="638.7573"/><line style="stroke:#454645;stroke-width:1;" x1="800.1692" x2="1253.8212" y1="638.7573" y2="638.7573"/><polygon fill="#454645" points="1243.8212,634.7573,1253.8212,638.7573,1243.8212,642.7573,1247.8212,638.7573" style="stroke:#454645;stroke-width:1;"/><line style="stroke:#454645;stroke-width:1;" x1="1731.4731" x2="1731.4731" y1="209.2344" y2="638.7573"/><line style="stroke:#454645;stroke-width:1;" x1="1731.4731" x2="1277.8212" y1="638.7573" y2="638.7573"/><polygon fill="#454645" points="1287.8212,634.7573,1277.8212,638.7573,1287.8212,642.7573,1283.8212,638.7573" style="stroke:#454645;stroke-width:1;"/><line style="stroke:#454645;stroke-width:1;" x1="1265.8212" x2="1265.8212" y1="121.2656" y2="141.2656"/><polygon fill="#454645" points="1261.8212,131.2656,1265.8212,141.2656,1269.8212,131.2656,1265.8212,135.2656" style="stroke:#454645;stroke-width:1;"/><line style="stroke:#454645;stroke-width:1;" x1="1265.8212" x2="1265.8212" y1="650.7573" y2="670.7573"/><polygon fill="#454645" points="1261.8212,660.7573,1265.8212,670.7573,1269.8212,660.7573,1265.8212,664.7573" style="stroke:#454645;stroke-width:1;"/><line style="stroke:#454645;stroke-width:1;" x1="812.6014" x2="812.6014" y1="960.1479" y2="995.1479"/><polygon fill="#454645" points="808.6014,985.1479,812.6014,995.1479,816.6014,985.1479,812.6014,989.1479" style="stroke:#454645;stroke-width:1;"/><line style="stroke:#454645;stroke-width:1;" x1="812.6014" x2="812.6014" y1="1029.1167" y2="1064.1167"/><polygon fill="#454645" points="808.6014,1054.1167,812.6014,1064.1167,816.6014,1054.1167,812.6014,1058.1167" style="stroke:#454645;stroke-width:1;"/><line style="stroke:#454645;stroke-width:1;" x1="812.6014" x2="812.6014" y1="1098.0854" y2="1133.0854"/><polygon fill="#454645" points="808.6014,1123.0854,812.6014,1133.0854,816.6014,1123.0854,812.6014,1127.0854" style="stroke:#454645;stroke-width:1;"/><line style="stroke:#454645;stroke-width:1;" x1="812.6014" x2="812.6014" y1="878.1792" y2="926.1792"/><polygon fill="#454645" points="808.6014,916.1792,812.6014,926.1792,816.6014,916.1792,812.6014,920.1792" style="stroke:#454645;stroke-width:1;"/><line style="stroke:#454645;stroke-width:1;" x1="882.3702" x2="985.3075" y1="1227.0542" y2="1227.0542"/><polygon fill="#454645" points="981.3075,1056.6167,985.3075,1046.6167,989.3075,1056.6167,985.3075,1052.6167" style="stroke:#454645;stroke-width:1;"/><line style="stroke:#454645;stroke-width:1;" x1="985.3075" x2="985.3075" y1="866.1792" y2="1227.0542"/><line style="stroke:#454645;stroke-width:1;" x1="985.3075" x2="824.6014" y1="866.1792" y2="866.1792"/><polygon fill="#454645" points="834.6014,862.1792,824.6014,866.1792,834.6014,870.1792,830.6014,866.1792" style="stroke:#454645;stroke-width:1;"/><line style="stroke:#454645;stroke-width:1;" x1="812.6014" x2="812.6014" y1="1167.0542" y2="1215.0542"/><polygon fill="#454645" points="808.6014,1205.0542,812.6014,1215.0542,816.6014,1205.0542,812.6014,1209.0542" style="stroke:#454645;stroke-width:1;"/><line style="stroke:#454645;stroke-width:1;" x1="812.6014" x2="812.6014" y1="819.1792" y2="854.1792"/><polygon fill="#454645" points="808.6014,844.1792,812.6014,854.1792,816.6014,844.1792,812.6014,848.1792" style="stroke:#454645;stroke-width:1;"/><line style="stroke:#454645;stroke-width:1;" x1="1239.6708" x2="1239.6708" y1="960.1479" y2="995.1479"/><polygon fill="#454645" points="1235.6708,985.1479,1239.6708,995.1479,1243.6708,985.1479,1239.6708,989.1479" style="stroke:#454645;stroke-width:1;"/><line style="stroke:#454645;stroke-width:1;" x1="1239.6708" x2="1239.6708" y1="1029.1167" y2="1064.1167"/><polygon fill="#454645" points="1235.6708,1054.1167,1239.6708,1064.1167,1243.6708,1054.1167,1239.6708,1058.1167" style="stroke:#454645;stroke-width:1;"/><line style="stroke:#454645;stroke-width:1;" x1="1239.6708" x2="1239.6708" y1="1098.0854" y2="1133.0854"/><polygon fill="#454645" points="1235.6708,1123.0854,1239.6708,1133.0854,1243.6708,1123.0854,1239.6708,1127.0854" style="stroke:#454645;stroke-width:1;"/><line style="stroke:#454645;stroke-width:1;" x1="1239.6708" x2="1239.6708" y1="878.1792" y2="926.1792"/><polygon fill="#454645" points="1235.6708,916.1792,1239.6708,926.1792,1243.6708,916.1792,1239.6708,920.1792" style="stroke:#454645;stroke-width:1;"/><line style="stroke:#454645;stroke-width:1;" x1="1309.4396" x2="1466.0341" y1="1227.0542" y2="1227.0542"/><polygon fill="#454645" points="1462.0341,1056.6167,1466.0341,1046.6167,1470.0341,1056.6167,1466.0341,1052.6167" style="stroke:#454645;stroke-width:1;"/><line style="stroke:#454645;stroke-width:1;" x1="1466.0341" x2="1466.0341" y1="866.1792" y2="1227.0542"/><line style="stroke:#454645;stroke-width:1;" x1="1466.0341" x2="1251.6708" y1="866.1792" y2="866.1792"/><polygon fill="#454645" points="1261.6708,862.1792,1251.6708,866.1792,1261.6708,870.1792,1257.6708,866.1792" style="stroke:#454645;stroke-width:1;"/><line style="stroke:#454645;stroke-width:1;" x1="1239.6708" x2="1239.6708" y1="1167.0542" y2="1215.0542"/><polygon fill="#454645" points="1235.6708,1205.0542,1239.6708,1215.0542,1243.6708,1205.0542,1239.6708,1209.0542" style="stroke:#454645;stroke-width:1;"/><line style="stroke:#454645;stroke-width:1;" x1="1239.6708" x2="1239.6708" y1="819.1792" y2="854.1792"/><polygon fill="#454645" points="1235.6708,844.1792,1239.6708,854.1792,1243.6708,844.1792,1239.6708,848.1792" style="stroke:#454645;stroke-width:1;"/><line style="stroke:#454645;stroke-width:1;" x1="1680.8905" x2="1680.8905" y1="925.6636" y2="960.6636"/><polygon fill="#454645" points="1676.8905,950.6636,1680.8905,960.6636,1684.8905,950.6636,1680.8905,954.6636" style="stroke:#454645;stroke-width:1;"/><line style="stroke:#454645;stroke-width:1;" x1="1680.8905" x2="1680.8905" y1="994.6323" y2="1029.6323"/><polygon fill="#454645" points="1676.8905,1019.6323,1680.8905,1029.6323,1684.8905,1019.6323,1680.8905,1023.6323" style="stroke:#454645;stroke-width:1;"/><line style="stroke:#454645;stroke-width:1;" x1="1680.8905" x2="1680.8905" y1="1063.6011" y2="1098.6011"/><polygon fill="#454645" points="1676.8905,1088.6011,1680.8905,1098.6011,1684.8905,1088.6011,1680.8905,1092.6011" style="stroke:#454645;stroke-width:1;"/><line style="stroke:#454645;stroke-width:1;" x1="1680.8905" x2="1680.8905" y1="1132.5698" y2="1167.5698"/><polygon fill="#454645" points="1676.8905,1157.5698,1680.8905,1167.5698,1684.8905,1157.5698,1680.8905,1161.5698" style="stroke:#454645;stroke-width:1;"/><line style="stroke:#454645;stroke-width:1;" x1="1680.8905" x2="1680.8905" y1="843.6948" y2="891.6948"/><polygon fill="#454645" points="1676.8905,881.6948,1680.8905,891.6948,1684.8905,881.6948,1680.8905,885.6948" style="stroke:#454645;stroke-width:1;"/><line style="stroke:#454645;stroke-width:1;" x1="1748.0731" x2="1867.7469" y1="1261.5386" y2="1261.5386"/><polygon fill="#454645" points="1863.7469,1056.6167,1867.7469,1046.6167,1871.7469,1056.6167,1867.7469,1052.6167" style="stroke:#454645;stroke-width:1;"/><line style="stroke:#454645;stroke-width:1;" x1="1867.7469" x2="1867.7469" y1="831.6948" y2="1261.5386"/><line style="stroke:#454645;stroke-width:1;" x1="1867.7469" x2="1692.8905" y1="831.6948" y2="831.6948"/><polygon fill="#454645" points="1702.8905,827.6948,1692.8905,831.6948,1702.8905,835.6948,1698.8905,831.6948" style="stroke:#454645;stroke-width:1;"/><line style="stroke:#454645;stroke-width:1;" x1="1680.8905" x2="1680.8905" y1="1201.5386" y2="1249.5386"/><polygon fill="#454645" points="1676.8905,1239.5386,1680.8905,1249.5386,1684.8905,1239.5386,1680.8905,1243.5386" style="stroke:#454645;stroke-width:1;"/><line style="stroke:#454645;stroke-width:1;" x1="1680.8905" x2="1680.8905" y1="784.6948" y2="819.6948"/><polygon fill="#454645" points="1676.8905,809.6948,1680.8905,819.6948,1684.8905,809.6948,1680.8905,813.6948" style="stroke:#454645;stroke-width:1;"/><line style="stroke:#454645;stroke-width:1;" x1="812.6014" x2="812.6014" y1="730.7261" y2="785.2104"/><polygon fill="#454645" points="808.6014,775.2104,812.6014,785.2104,816.6014,775.2104,812.6014,779.2104" style="stroke:#454645;stroke-width:1;"/><line style="stroke:#454645;stroke-width:1;" x1="1239.6708" x2="1239.6708" y1="730.7261" y2="785.2104"/><polygon fill="#454645" points="1235.6708,775.2104,1239.6708,785.2104,1243.6708,775.2104,1239.6708,779.2104" style="stroke:#454645;stroke-width:1;"/><line style="stroke:#454645;stroke-width:1;" x1="1680.8905" x2="1680.8905" y1="730.7261" y2="750.7261"/><polygon fill="#454645" points="1676.8905,740.7261,1680.8905,750.7261,1684.8905,740.7261,1680.8905,744.7261" style="stroke:#454645;stroke-width:1;"/><line style="stroke:#454645;stroke-width:1;" x1="812.6014" x2="812.6014" y1="1239.0542" y2="1293.5386"/><polygon fill="#454645" points="808.6014,1283.5386,812.6014,1293.5386,816.6014,1283.5386,812.6014,1287.5386" style="stroke:#454645;stroke-width:1;"/><line style="stroke:#454645;stroke-width:1;" x1="1239.6708" x2="1239.6708" y1="1239.0542" y2="1293.5386"/><polygon fill="#454645" points="1235.6708,1283.5386,1239.6708,1293.5386,1243.6708,1283.5386,1239.6708,1287.5386" style="stroke:#454645;stroke-width:1;"/><line style="stroke:#454645;stroke-width:1;" x1="1680.8905" x2="1680.8905" y1="1273.5386" y2="1293.5386"/><polygon fill="#454645" points="1676.8905,1283.5386,1680.8905,1293.5386,1684.8905,1283.5386,1680.8905,1287.5386" style="stroke:#454645;stroke-width:1;"/><line style="stroke:#454645;stroke-width:1;" x1="1265.8212" x2="1265.8212" y1="704.7261" y2="724.7261"/><polygon fill="#454645" points="1261.8212,714.7261,1265.8212,724.7261,1269.8212,714.7261,1265.8212,718.7261" style="stroke:#454645;stroke-width:1;"/><line style="stroke:#454645;stroke-width:1;" x1="1265.8212" x2="1265.8212" y1="1299.5386" y2="1319.5386"/><polygon fill="#454645" points="1261.8212,1309.5386,1265.8212,1319.5386,1269.8212,1309.5386,1265.8212,1313.5386" style="stroke:#454645;stroke-width:1;"/><!--SRC=[lPPjRzD03CVVvrEOlQ6R2dlVIQ1I7bHfHOKMU3dSn4sE9NVXpcsf4DyT-oxRkguQHKX4QfxEzld_i-_I9rnHGx0s2u-MCpPS4mp7C37UEm_FOBODJ0qCSpPhmrjuRR3qs6HPOFIS3Ju5yk1QiW4a563RrYP7DivUP9bPGczKEHS8fkI3imWZJt4K9iILArwUgfk5tfR2QGPoj1BMH8kJ1pvJv2gSmCzeg8TEC46xmXe-h2YeaKNZwM7OcsFmrjGrk1NVTu2byyt5VSitbaNRA-C0RI6_i977xvrNs3EUhHQDOIYG4TZ1AyoloHRtZQnZ0c_AYWSmd8vXX7KzWFF0pjELUjvQKnr8jOsRrdc6fNSDVAcGmx1j7z4soz72XuymSWKbf_Toz_oRr8PyOopM-rbJJJa3GYx1auTMiJQ1zonbObWIvnK5Q2W4BELcRV1cXWFcGG3i60kLwLPgRc6Hu2XpQBtBnSBOyYXMhQSxZwkD8lapkRcerAPzXDobAus5ZU4Aff8YzIF3Vgpy54FOE5_y4xi4mrFiduSiZXBFdOxp3i6Lpdodt1Pc6Pz-nNCy3Rf6lE4iTL1SVIZ9aaUMPnbPchhJckjIavTlX-FPJ6hNEBzDkIKLk9R1KOKUSrqSjSibDR78b3lqhEkBqiY5VWW8AL82dVQ9D1HafjjXfPU2NMH9GJPuZsjJIXgAQO9Ibx6kH37IFM0cAP9kBj8zrmTYdvtDwGThZdnsbbANdg4TKCcUjos5g3cLXjMhQzQxQaJLgZ70rtF5_LKvjyxOdIBVGIQl-qY0ZyDt4XPzNiKPIfB4BYydcacztOjUcD3MkEqosB58QSEcakf0BoQTEolGf8LYqqa_cz1riz80B8NMGIQVdSb9zjmexr4kddBfzLqow-ZxDsZIGi9L8NkdzjO1L2pVcv1xiz0YHCFUbqf8a3_jt-FOFvBUIf9_6dRY5ZSfHoaBnq__1s9TgaVnJLIDRULJ92skVhUzVHYnNFyAyIt5vKfYrywr0vZDv_3iHUnFkIXKkSpdimFkddZbRTYPGrw5LZvz-qsG2f04HRYwSBKUnq0MLRkGk-_2jVx1SErl]--></g></svg>