<svg xmlns="http://www.w3.org/2000/svg" xmlns:xlink="http://www.w3.org/1999/xlink" contentStyleType="text/css" data-diagram-type="CLASS" height="338px" preserveAspectRatio="none" style="width:709px;height:338px;background:#FFFFFF;" version="1.1" viewBox="0 0 709 338" width="709px" zoomAndPan="magnify"><title>Character Data Structure</title><defs/><g><g class="title" data-source-line="2"><text fill="#000000" font-family="sans-serif" font-size="14" font-weight="bold" lengthAdjust="spacing" textLength="199.3906" x="247.854" y="22.9951">Character Data Structure</text></g><!--class Char--><g class="entity" data-entity="Char" data-source-line="4" data-uid="ent0002" id="entity_Char"><rect fill="#F1F1F1" height="113.1875" rx="3.5" ry="3.5" style="stroke:#181818;stroke-width:0.5;" width="203.4883" x="252.81" y="44.2969"/><ellipse cx="307.2617" cy="60.2969" fill="#ADD1B2" rx="11" ry="11" style="stroke:#181818;stroke-width:1;"/><path d="M311.371,66.2969 L303.6523,66.2969 L303.6523,53.9063 L311.371,53.9063 L311.371,56.0625 L306.1054,56.0625 L306.1054,58.7344 L310.871,58.7344 L310.871,60.8906 L306.1054,60.8906 L306.1054,64.1406 L311.371,64.1406 L311.371,66.2969 Z " fill="#000000"/><text fill="#000000" font-family="sans-serif" font-size="14" lengthAdjust="spacing" textLength="86.085" x="327.7617" y="65.1436">CHARACTER</text><line style="stroke:#181818;stroke-width:0.5;" x1="253.81" x2="455.2983" y1="76.2969" y2="76.2969"/><ellipse cx="263.81" cy="89.9453" fill="#000000" rx="3" ry="3" style="stroke:#000000;stroke-width:1;"/><text fill="#000000" font-family="sans-serif" font-size="14" font-weight="bold" lengthAdjust="spacing" textLength="90.6855" x="272.81" y="93.292">characterId</text><text fill="#000000" font-family="sans-serif" font-size="14" lengthAdjust="spacing" textLength="82.3525" x="367.9457" y="93.292">(PK) : string</text><line style="stroke:#181818;stroke-width:1;" x1="253.81" x2="455.2983" y1="100.5938" y2="100.5938"/><ellipse cx="263.81" cy="114.2422" fill="#000000" rx="3" ry="3" style="stroke:#000000;stroke-width:1;"/><text fill="#000000" font-family="sans-serif" font-size="14" lengthAdjust="spacing" textLength="162.1484" x="272.81" y="117.5889">characterName : string</text><ellipse cx="263.81" cy="130.5391" fill="#000000" rx="3" ry="3" style="stroke:#000000;stroke-width:1;"/><text fill="#000000" font-family="sans-serif" font-size="14" lengthAdjust="spacing" textLength="62.8359" x="272.81" y="133.8857">bio : text</text><ellipse cx="263.81" cy="146.8359" fill="#000000" rx="3" ry="3" style="stroke:#000000;stroke-width:1;"/><text fill="#000000" font-family="sans-serif" font-size="14" lengthAdjust="spacing" textLength="117.3047" x="272.81" y="150.1826">imageUri : string</text></g><!--class Q--><g class="entity" data-entity="Q" data-source-line="12" data-uid="ent0003" id="entity_Q"><rect fill="#F1F1F1" height="80.5938" rx="3.5" ry="3.5" style="stroke:#181818;stroke-width:0.5;" width="203.0986" x="499" y="242.6369"/><ellipse cx="538.8287" cy="258.6369" fill="#ADD1B2" rx="11" ry="11" style="stroke:#181818;stroke-width:1;"/><path d="M542.938,264.6369 L535.2193,264.6369 L535.2193,252.2462 L542.938,252.2462 L542.938,254.4025 L537.6724,254.4025 L537.6724,257.0744 L542.438,257.0744 L542.438,259.2306 L537.6724,259.2306 L537.6724,262.4806 L542.938,262.4806 L542.938,264.6369 Z " fill="#000000"/><text fill="#000000" font-family="sans-serif" font-size="14" lengthAdjust="spacing" textLength="115.9238" x="558.3461" y="263.4836">QUESTIONNAIRE</text><line style="stroke:#181818;stroke-width:0.5;" x1="500" x2="701.0986" y1="274.6369" y2="274.6369"/><ellipse cx="510" cy="288.2853" fill="#000000" rx="3" ry="3" style="stroke:#000000;stroke-width:1;"/><text fill="#000000" font-family="sans-serif" font-size="14" font-weight="bold" lengthAdjust="spacing" textLength="90.6855" x="519" y="291.632">characterId</text><text fill="#000000" font-family="sans-serif" font-size="14" lengthAdjust="spacing" textLength="81.9629" x="614.1357" y="291.632">(FK) : string</text><line style="stroke:#181818;stroke-width:1;" x1="500" x2="701.0986" y1="298.9338" y2="298.9338"/><ellipse cx="510" cy="312.5822" fill="#000000" rx="3" ry="3" style="stroke:#000000;stroke-width:1;"/><text fill="#000000" font-family="sans-serif" font-size="14" lengthAdjust="spacing" textLength="100.0986" x="519" y="315.9289">answers : json</text></g><!--class Mem--><g class="entity" data-entity="Mem" data-source-line="18" data-uid="ent0004" id="entity_Mem"><rect fill="#F1F1F1" height="96.8906" rx="3.5" ry="3.5" style="stroke:#181818;stroke-width:0.5;" width="203.0986" x="7" y="234.4869"/><ellipse cx="46.6441" cy="250.4869" fill="#ADD1B2" rx="11" ry="11" style="stroke:#181818;stroke-width:1;"/><path d="M50.7535,256.4869 L43.0347,256.4869 L43.0347,244.0963 L50.7535,244.0963 L50.7535,246.2525 L45.4878,246.2525 L45.4878,248.9244 L50.2535,248.9244 L50.2535,251.0806 L45.4878,251.0806 L45.4878,254.3306 L50.7535,254.3306 L50.7535,256.4869 Z " fill="#000000"/><text fill="#000000" font-family="sans-serif" font-size="14" lengthAdjust="spacing" textLength="116.334" x="66.1206" y="255.3336">MEMORY_STORE</text><line style="stroke:#181818;stroke-width:0.5;" x1="8" x2="209.0986" y1="266.4869" y2="266.4869"/><ellipse cx="18" cy="280.1353" fill="#000000" rx="3" ry="3" style="stroke:#000000;stroke-width:1;"/><text fill="#000000" font-family="sans-serif" font-size="14" font-weight="bold" lengthAdjust="spacing" textLength="90.6855" x="27" y="283.482">characterId</text><text fill="#000000" font-family="sans-serif" font-size="14" lengthAdjust="spacing" textLength="81.9629" x="122.1357" y="283.482">(FK) : string</text><line style="stroke:#181818;stroke-width:1;" x1="8" x2="209.0986" y1="290.7838" y2="290.7838"/><ellipse cx="18" cy="304.4322" fill="#000000" rx="3" ry="3" style="stroke:#000000;stroke-width:1;"/><text fill="#000000" font-family="sans-serif" font-size="14" lengthAdjust="spacing" textLength="112.4717" x="27" y="307.7789">faiss_index : file</text><ellipse cx="18" cy="320.7291" fill="#000000" rx="3" ry="3" style="stroke:#000000;stroke-width:1;"/><text fill="#000000" font-family="sans-serif" font-size="14" lengthAdjust="spacing" textLength="105.7314" x="27" y="324.0757">texts_json : file</text></g><g class="entity" data-entity="GMN7" data-source-line="28" data-uid="ent0008" id="entity_GMN7"><path d="M490.82,91.8269 L490.82,96.8969 L456.43,100.8969 L490.82,104.8969 L490.82,109.9597 A3.5,3.5 0 0 0 494.32,113.4597 L628.7795,113.4597 A3.5,3.5 0 0 0 632.2795,109.9597 L632.2795,98.3269 L622.2795,88.3269 L494.32,88.3269 A3.5,3.5 0 0 0 490.82,91.8269" fill="#7FFFD4" style="stroke:#454645;stroke-width:1.5;"/><path d="M622.2795,88.3269 L622.2795,96.5769 A1.75,1.75 0 0 0 624.0295,98.3269 L632.2795,98.3269 L622.2795,88.3269" fill="#7FFFD4" style="stroke:#454645;stroke-width:1.5;"/><text fill="#454645" font-family="sans-serif" font-size="13" lengthAdjust="spacing" textLength="120.4595" x="496.82" y="105.3938">"Core profile info."</text></g><g class="entity" data-entity="GMN10" data-source-line="29" data-uid="ent0011" id="entity_GMN10"><path d="M245.15,273.8669 L245.15,278.9269 L210.41,282.9269 L245.15,286.9269 L245.15,291.9997 A3.5,3.5 0 0 0 248.65,295.4997 L460.4493,295.4997 A3.5,3.5 0 0 0 463.9493,291.9997 L463.9493,280.3669 L453.9493,270.3669 L248.65,270.3669 A3.5,3.5 0 0 0 245.15,273.8669" fill="#7FFFD4" style="stroke:#454645;stroke-width:1.5;"/><path d="M453.9493,270.3669 L453.9493,278.6169 A1.75,1.75 0 0 0 455.6993,280.3669 L463.9493,280.3669 L453.9493,270.3669" fill="#7FFFD4" style="stroke:#454645;stroke-width:1.5;"/><text fill="#454645" font-family="sans-serif" font-size="13" lengthAdjust="spacing" textLength="197.7993" x="251.15" y="287.4338">"Vectorized memory for RAG."</text></g><!--link Char to Q--><g class="link" data-entity-1="Char" data-entity-2="Q" data-source-line="25" data-uid="lnk5" id="link_Char_Q"><path codeLine="25" d="M437.4949,162.5928 C474.8649,189.9528 506.0539,212.7726 539.9039,237.5426" fill="none" id="Char-Q" style="stroke:#454645;stroke-width:1;"/><line style="stroke:#454645;stroke-width:1;" x1="431.9045" x2="436.6304" y1="163.4573" y2="157.0024"/><line style="stroke:#454645;stroke-width:1;" x1="434.3251" x2="439.051" y1="165.2295" y2="158.7746"/><line style="stroke:#454645;stroke-width:1;" x1="437.4949" x2="431.04" y1="162.5928" y2="157.8669"/><line style="stroke:#454645;stroke-width:1;" x1="539.9039" x2="549.9032" y1="237.5426" y2="237.4248"/><line style="stroke:#454645;stroke-width:1;" x1="539.9039" x2="542.8168" y1="237.5426" y2="247.1089"/><line style="stroke:#454645;stroke-width:1;" x1="539.9039" x2="546.36" y1="237.5426" y2="242.2669"/><line style="stroke:#454645;stroke-width:1;" x1="540.652" x2="535.9277" y1="233.1335" y2="239.5896"/><text fill="#000000" font-family="sans-serif" font-size="13" lengthAdjust="spacing" textLength="22.9785" x="493.55" y="200.5538">has</text></g><!--link Char to Mem--><g class="link" data-entity-1="Char" data-entity-2="Mem" data-source-line="26" data-uid="lnk6" id="link_Char_Mem"><path codeLine="26" d="M271.6046,162.5921 C238.1746,187.0621 212.2866,206.0133 180.2466,229.4533" fill="none" id="Char-Mem" style="stroke:#454645;stroke-width:1;"/><line style="stroke:#454645;stroke-width:1;" x1="272.4697" x2="277.1949" y1="157.0018" y2="163.4572"/><line style="stroke:#454645;stroke-width:1;" x1="270.0489" x2="274.7741" y1="158.7737" y2="165.2291"/><line style="stroke:#454645;stroke-width:1;" x1="271.6046" x2="278.06" y1="162.5921" y2="157.8669"/><line style="stroke:#454645;stroke-width:1;" x1="180.2466" x2="177.3327" y1="229.4533" y2="239.0193"/><line style="stroke:#454645;stroke-width:1;" x1="180.2466" x2="170.2473" y1="229.4533" y2="229.3344"/><line style="stroke:#454645;stroke-width:1;" x1="180.2466" x2="173.79" y1="229.4533" y2="234.1769"/><line style="stroke:#454645;stroke-width:1;" x1="184.2226" x2="179.499" y1="231.5007" y2="225.0441"/><text fill="#000000" font-family="sans-serif" font-size="13" lengthAdjust="spacing" textLength="22.9785" x="232.55" y="200.5538">has</text></g><!--SRC=[bP11JuD048Nl_8gHavBG7z0RGLHY00kjYQTcImTOKtRDx5HRM_-x2vQs6Zrut3VVllTcBhZ15k5LBaWeTbZo2Y5i18cIaU1Qi822QLtocj1nK5bY2svu5-H1E8ro5uJfUTWv01vuNZbyZfUU1vSFzrSm1iCaLMq9t- -n8vGActuszs0XjHKODzm_PIjgd94yGH-d6fDPL4pZB4s3E8_wAfE_UjpysaCeyuPaxEJPQ7LkdKH9bZ_DYsbsS4wm_Pzt9QGnSwcMkB7JIgwmbxlDpBoB6rIRsbzml_Vz_SwkC0Qt4SRzfdRnW-uepGWawuP1Lr_djxDG4y8BwSuKfAhqoFr17amUiMHDyXsNq6AhQGkL9iY3sv7x2G00]--></g></svg>