<svg xmlns="http://www.w3.org/2000/svg" xmlns:xlink="http://www.w3.org/1999/xlink" contentStyleType="text/css" data-diagram-type="DESCRIPTION" height="943.75px" preserveAspectRatio="none" style="width:1892px;height:943px;background:#F5F7FA;" version="1.1" viewBox="0 0 1892 943" width="1892.7083px" zoomAndPan="magnify"><title>AI Mirror - Complete Project Overview</title><defs><filter height="300%" id="fqvr1a480ytls" width="300%" x="-1" y="-1"><feGaussianBlur result="blurOut" stdDeviation="2.0833"/><feColorMatrix in="blurOut" result="blurOut2" type="matrix" values="0 0 0 0 0 0 0 0 0 0 0 0 0 0 0 0 0 0 .4 0"/><feOffset dx="4.1667" dy="4.1667" in="blurOut2" result="blurOut3"/><feBlend in="SourceGraphic" in2="blurOut3" mode="normal"/></filter><linearGradient id="gqvr1a480ytls0" x1="50%" x2="50%" y1="0%" y2="100%"><stop offset="0%" stop-color="#B8B8B8"/><stop offset="100%" stop-color="#6B6B6B"/></linearGradient><linearGradient id="gqvr1a480ytls1" x1="50%" x2="50%" y1="0%" y2="100%"><stop offset="0%" stop-color="#7C9AB9"/><stop offset="100%" stop-color="#304D6D"/></linearGradient><linearGradient id="gqvr1a480ytls2" x1="50%" x2="50%" y1="0%" y2="100%"><stop offset="0%" stop-color="#70B8F7"/><stop offset="100%" stop-color="#246BAA"/></linearGradient></defs><g><rect fill="#F5F7FA" height="943.75" style="stroke:none;stroke-width:1.0417;" width="1892.7083" x="0" y="0"/><g class="title" data-source-line="2"><rect fill="none" height="33.3333" rx="7.8125" ry="7.8125" style="stroke:#6B6B6B;stroke-width:1.0417;" width="22.9167" x="929.1418" y="20.8333"/><text fill="#304D6D" font-family="Verdana" font-size="20.8333" font-weight="bold" lengthAdjust="spacing" textLength="0" x="940.6002" y="32.2917">AI Mirror - Complete Project Overview</text></g><!--cluster ? Phase 1: Persona Creation--><g class="cluster" data-entity="&#127793; Phase 1: Persona Creation" data-source-line="33" data-uid="ent0003" id="cluster_&#127793; Phase 1: Persona Creation"><rect fill="#FFFFFF" filter="url(#fqvr1a480ytls)" height="107.0937" rx="7.8125" ry="7.8125" style="stroke:#95A5A6;stroke-width:2.0833;" width="654.1667" x="17.7083" y="179.1354"/><text fill="#2C3E50" font-family="Verdana" font-size="14.5833" font-weight="bold" lengthAdjust="spacing" textLength="231.2113" x="229.186" y="199.9637">&#127793; Phase 1: Persona Creation</text></g><!--cluster ? Phase 2: Backend AI Processing--><g class="cluster" data-entity="&#129504; Phase 2: Backend AI Processing" data-source-line="39" data-uid="ent0007" id="cluster_&#129504; Phase 2: Backend AI Processing"><rect fill="#FFFFFF" filter="url(#fqvr1a480ytls)" height="407.0208" rx="7.8125" ry="7.8125" style="stroke:#95A5A6;stroke-width:2.0833;" width="302.0833" x="452.0833" y="311.2292"/><text fill="#2C3E50" font-family="Verdana" font-size="14.5833" font-weight="bold" lengthAdjust="spacing" textLength="275.9369" x="465.1566" y="332.0574">&#129504; Phase 2: Backend AI Processing</text></g><!--cluster Persona Generation Engine--><g class="cluster" data-entity="Persona Generation Engine" data-source-line="40" data-uid="ent0008" id="cluster_Persona Generation Engine"><path d="M495.3125,366.4375 L496.3542,366.4375 A11.7188,11.7188 0 0 1 504.1667,374.25 L511.4583,393.5208 L696.3542,393.5208 A7.8125,7.8125 0 0 1 704.1667,401.3333 L704.1667,685.4375 A7.8125,7.8125 0 0 1 696.3542,693.25 L495.3125,693.25 A7.8125,7.8125 0 0 1 487.5,685.4375 L487.5,374.25 A7.8125,7.8125 0 0 1 495.3125,366.4375" fill="url(#gqvr1a480ytls0)" filter="url(#fqvr1a480ytls)" style="stroke:#446E9B;stroke-width:2.0833;"/><line style="stroke:#446E9B;stroke-width:2.0833;" x1="487.5" x2="511.4583" y1="393.5208" y2="393.5208"/><text fill="#446E9B" font-family="Verdana" font-size="12.5" font-weight="bold" lengthAdjust="spacing" textLength="0" x="496.875" y="373.7292">Persona Generation Engine</text></g><!--cluster ? Phase 3: User Interaction--><g class="cluster" data-entity="&#128172; Phase 3: User Interaction" data-source-line="47" data-uid="ent0012" id="cluster_&#128172; Phase 3: User Interaction"><rect fill="#FFFFFF" filter="url(#fqvr1a480ytls)" height="183.4688" rx="7.8125" ry="7.8125" style="stroke:#95A5A6;stroke-width:2.0833;" width="709.375" x="768.75" y="743.25"/><text fill="#2C3E50" font-family="Verdana" font-size="14.5833" font-weight="bold" lengthAdjust="spacing" textLength="222.8444" x="1012.0153" y="764.0782">&#128172; Phase 3: User Interaction</text></g><!--cluster Created AI Persona--><g class="cluster" data-entity="Created AI Persona" data-source-line="48" data-uid="ent0013" id="cluster_Created AI Persona"><path d="M801.5625,798.4583 L802.6042,798.4583 A11.7188,11.7188 0 0 1 810.4167,806.2708 L817.7083,825.5417 L1445.3125,825.5417 A7.8125,7.8125 0 0 1 1453.125,833.3542 L1453.125,893.9063 A7.8125,7.8125 0 0 1 1445.3125,901.7188 L801.5625,901.7188 A7.8125,7.8125 0 0 1 793.75,893.9063 L793.75,806.2708 A7.8125,7.8125 0 0 1 801.5625,798.4583" fill="url(#gqvr1a480ytls0)" filter="url(#fqvr1a480ytls)" style="stroke:#446E9B;stroke-width:2.0833;"/><line style="stroke:#446E9B;stroke-width:2.0833;" x1="793.75" x2="817.7083" y1="825.5417" y2="825.5417"/><text fill="#446E9B" font-family="Verdana" font-size="12.5" font-weight="bold" lengthAdjust="spacing" textLength="0" x="803.125" y="805.75">Created AI Persona</text></g><!--cluster ? External Services--><g class="cluster" data-entity="&#127760; External Services" data-source-line="55" data-uid="ent0017" id="cluster_&#127760; External Services"><path d="M96.7879,376.2306 C102.2028,364.0891 112.4904,362.4774 120.042,374.1437 C127.7568,364.7589 134.801,365.4623 141.6855,375.089 C146.1023,365.058 156.2703,363.1081 162.4763,373.2445 C167.825,361.3308 177.4444,359.8027 184.7845,371.3511 C191.4756,362.0156 202.2798,362.8983 206.8874,373.6444 C215.2361,359.4315 224.553,360.1689 233.1677,373.3896 C236.8744,360.5773 246.4023,358.6213 254.8262,368.9805 C260.9182,357.7623 271.2233,361.0401 275.9901,370.347 C283.0896,359.6173 292.3412,359.3884 299.846,369.8917 C307.2256,360.0372 313.9085,359.8616 320.3025,370.8586 C330.4769,359.154 339.433,359.9059 345.3277,374.874 C348.8945,364.4923 357.5977,364.1829 363.6418,372.4399 C373.2466,362.0167 380.9368,362.9024 388.9384,374.2987 C399.8796,364.9767 409.598,363.8508 415.625,379.5417 C418.6443,379.1484 419.9395,380.7004 418.9784,383.5978 C439.1839,397.0249 440.0097,409.2181 418.7837,422.4374 C434.4837,439.8876 433.7084,460.8438 408.3333,469.0938 C410.2381,469.5757 410.9462,470.4571 409.9463,472.3693 C403.8814,480.9053 394.8607,482.8029 389.7198,471.4305 C383.4624,485.074 373.5816,484.9986 365.4751,473.1921 C359.9848,485.8762 348.5026,483.1364 342.2185,474.0398 C335.9248,484.569 329.6718,484.9817 322.5309,474.847 C315.7715,485.3781 307.2844,486.4061 298.7386,476.9762 C291.3182,487.2103 284.2562,486.9808 277.6757,476.1369 C270.6816,486.8084 258.2657,486.7649 251.6433,475.6919 C246.7378,484.5589 237.9472,484.0441 232.8506,475.903 C224.4318,488.3434 214.2025,486.5238 208.469,473.3472 C202.4899,484.8528 195.4576,485.6133 187.4337,475.3205 C181.2106,485.2903 170.4443,485.9966 165.8428,473.745 C158.8839,483.6966 150.6198,483.1954 143.286,474.191 C134.9172,487.2382 127.2919,486.4766 119.1677,473.9603 C104.2911,486.1374 91.2853,478.5137 87.5,461.8021 C88.7274,462.4617 88.7172,463.4193 87.6286,464.2029 C66.186,456.0685 67.5369,437.273 83.118,424.8905 C58.6151,400.4129 63.7025,384.3994 94.7917,372.25 C97.6011,372.5027 97.9613,373.9806 96.7879,376.2306" fill="#DFE6E9" filter="url(#fqvr1a480ytls)" style="stroke:#B2BEC3;stroke-width:1.0417;"/><text fill="#2D3436" font-family="Verdana" font-size="12.5" font-weight="bold" lengthAdjust="spacing" textLength="0" x="251.5625" y="382.6667">&#127760; External Services</text></g><!--entity UC1--><g class="entity" data-entity="UC1" data-source-line="34" data-uid="ent0004" id="entity_UC1"><ellipse cx="558.3286" cy="247.7907" fill="#6AB0DE" rx="96.4015" ry="21.7803" style="stroke:#4A90E2;stroke-width:2.0833;"/><text fill="#FFFFFF" font-family="Verdana" font-size="13.5417" lengthAdjust="spacing" textLength="169.0857" x="473.7858" y="252.0266">Create via Questionnaire</text></g><!--entity UC2--><g class="entity" data-entity="UC2" data-source-line="35" data-uid="ent0005" id="entity_UC2"><ellipse cx="123.9608" cy="247.788" fill="#6AB0DE" rx="89.8254" ry="20.4651" style="stroke:#4A90E2;stroke-width:2.0833;"/><text fill="#FFFFFF" font-family="Verdana" font-size="13.5417" lengthAdjust="spacing" textLength="154.453" x="46.7343" y="252.0238">Import from WhatsApp</text></g><!--entity UC3--><g class="entity" data-entity="UC3" data-source-line="36" data-uid="ent0006" id="entity_UC3"><ellipse cx="337.502" cy="247.7942" fill="#6AB0DE" rx="87.7208" ry="20.0442" style="stroke:#4A90E2;stroke-width:2.0833;"/><text fill="#FFFFFF" font-family="Verdana" font-size="13.5417" lengthAdjust="spacing" textLength="149.7121" x="262.646" y="252.03">Import from Telegram</text></g><!--entity P1--><g class="entity" data-entity="P1" data-source-line="41" data-uid="ent0009" id="entity_P1"><ellipse cx="595.8314" cy="432.6425" fill="#6AB0DE" rx="91.2064" ry="25.58" style="stroke:#4A90E2;stroke-width:2.0833;"/><text fill="#FFFFFF" font-family="Verdana" font-size="13.5417" lengthAdjust="spacing" textLength="154.1092" x="518.7768" y="433.8814">Analyze Data with LLM</text><text fill="#FFFFFF" font-family="Verdana" font-size="13.5417" lengthAdjust="spacing" textLength="69.2357" x="561.2135" y="449.6447">(Groq API)</text></g><!--entity P2--><g class="entity" data-entity="P2" data-source-line="42" data-uid="ent0010" id="entity_P2"><ellipse cx="596.8757" cy="543.3814" fill="#6AB0DE" rx="88.157" ry="20.1314" style="stroke:#4A90E2;stroke-width:2.0833;"/><text fill="#FFFFFF" font-family="Verdana" font-size="13.5417" lengthAdjust="spacing" textLength="150.6973" x="521.5271" y="547.6172">Generate Profile &amp; Bio</text></g><!--entity P3--><g class="entity" data-entity="P3" data-source-line="43" data-uid="ent0011" id="entity_P3"><ellipse cx="597.9186" cy="651.3052" fill="#6AB0DE" rx="89.554" ry="25.2843" style="stroke:#4A90E2;stroke-width:2.0833;"/><text fill="#FFFFFF" font-family="Verdana" font-size="13.5417" lengthAdjust="spacing" textLength="153.1769" x="521.3302" y="653.1538">Create Vector Memory</text><text fill="#FFFFFF" font-family="Verdana" font-size="13.5417" lengthAdjust="spacing" textLength="48.8042" x="573.5165" y="668.9171">(FAISS)</text></g><!--entity I1--><g class="entity" data-entity="I1" data-source-line="49" data-uid="ent0014" id="entity_I1"><ellipse cx="896.8757" cy="862.0689" fill="#6AB0DE" rx="86.6986" ry="19.8397" style="stroke:#4A90E2;stroke-width:2.0833;"/><text fill="#FFFFFF" font-family="Verdana" font-size="13.5417" lengthAdjust="spacing" textLength="147.3979" x="823.1768" y="866.3047">Interact via Text Chat</text></g><!--entity I2--><g class="entity" data-entity="I2" data-source-line="50" data-uid="ent0015" id="entity_I2"><ellipse cx="1122.9126" cy="862.0763" fill="#6AB0DE" rx="102.4126" ry="22.9825" style="stroke:#4A90E2;stroke-width:2.0833;"/><text fill="#FFFFFF" font-family="Verdana" font-size="13.5417" lengthAdjust="spacing" textLength="182.2637" x="1031.7808" y="866.3121">Interact via Voice Message</text></g><!--entity I3--><g class="entity" data-entity="I3" data-source-line="51" data-uid="ent0016" id="entity_I3"><ellipse cx="1348.9549" cy="862.0764" fill="#6AB0DE" rx="87.0487" ry="19.9097" style="stroke:#4A90E2;stroke-width:2.0833;"/><text fill="#FFFFFF" font-family="Verdana" font-size="13.5417" lengthAdjust="spacing" textLength="148.1913" x="1274.8593" y="866.3122">Interact via Voice Call</text></g><!--entity WA--><g class="entity" data-entity="WA" data-source-line="56" data-uid="ent0018" id="entity_WA"><rect fill="url(#gqvr1a480ytls1)" filter="url(#fqvr1a480ytls)" height="56.2174" rx="7.8125" ry="7.8125" style="stroke:#304D6D;stroke-width:1.0417;" width="139.6077" x="95.8229" y="404.5417"/><rect fill="url(#gqvr1a480ytls1)" height="10.4167" style="stroke:#304D6D;stroke-width:1.0417;" width="15.625" x="214.5973" y="409.75"/><rect fill="url(#gqvr1a480ytls1)" height="2.0833" style="stroke:#304D6D;stroke-width:1.0417;" width="4.1667" x="212.514" y="411.8333"/><rect fill="url(#gqvr1a480ytls1)" height="2.0833" style="stroke:#304D6D;stroke-width:1.0417;" width="4.1667" x="212.514" y="416"/><text fill="#FFFFFF" font-family="Verdana" font-size="12.5" lengthAdjust="spacing" textLength="87.5244" x="116.6563" y="442.1861">WhatsApp API</text></g><!--entity TG--><g class="entity" data-entity="TG" data-source-line="57" data-uid="ent0019" id="entity_TG"><rect fill="url(#gqvr1a480ytls1)" filter="url(#fqvr1a480ytls)" height="56.2174" rx="7.8125" ry="7.8125" style="stroke:#304D6D;stroke-width:1.0417;" width="135.2315" x="271.9688" y="404.5417"/><rect fill="url(#gqvr1a480ytls1)" height="10.4167" style="stroke:#304D6D;stroke-width:1.0417;" width="15.625" x="386.3669" y="409.75"/><rect fill="url(#gqvr1a480ytls1)" height="2.0833" style="stroke:#304D6D;stroke-width:1.0417;" width="4.1667" x="384.2836" y="411.8333"/><rect fill="url(#gqvr1a480ytls1)" height="2.0833" style="stroke:#304D6D;stroke-width:1.0417;" width="4.1667" x="384.2836" y="416"/><text fill="#FFFFFF" font-family="Verdana" font-size="12.5" lengthAdjust="spacing" textLength="83.1482" x="292.8021" y="442.1861">Telegram API</text></g><!--entity U--><g class="entity" data-entity="U" data-source-line="31" data-uid="ent0002" id="entity_U"><ellipse cx="882.2873" cy="80.2083" fill="#2C3E50" filter="url(#fqvr1a480ytls)" rx="8.3333" ry="8.3333" style="stroke:#304D6D;stroke-width:1.0417;"/><path d="M882.2873,88.5417 L882.2873,116.6667 M868.7456,96.875 L895.8289,96.875 M882.2873,116.6667 L868.7456,132.2917 M882.2873,116.6667 L895.8289,132.2917" fill="none" filter="url(#fqvr1a480ytls)" style="stroke:#304D6D;stroke-width:1.0417;"/><text fill="#FFFFFF" font-family="Verdana" font-size="12.5" lengthAdjust="spacing" textLength="28.4912" x="868.0417" y="154.3111">User</text></g><g class="entity" data-entity="GMN36" data-source-line="85" data-uid="ent0037" id="entity_GMN36"><path d="M464.7396,844.9167 L464.7396,879.2266 A7.8125,7.8125 0 0 0 472.5521,887.0391 L723.2886,887.0391 A7.8125,7.8125 0 0 0 731.1011,879.2266 L731.1011,847.5208 L720.6844,837.1042 L602.0833,837.1042 L597.9167,676.7292 L593.75,837.1042 L472.5521,837.1042 A7.8125,7.8125 0 0 0 464.7396,844.9167" fill="url(#gqvr1a480ytls2)" filter="url(#fqvr1a480ytls)" style="stroke:#246BAA;stroke-width:1.0417;"/><path d="M720.6844,837.1042 L720.6844,843.6146 A3.9063,3.9063 0 0 0 724.5907,847.5208 L731.1011,847.5208 L720.6844,837.1042" fill="url(#gqvr1a480ytls2)" style="stroke:#246BAA;stroke-width:1.0417;"/><text fill="#FFFFFF" font-family="Verdana" font-size="12.5" lengthAdjust="spacing" textLength="209.1797" x="476.1979" y="859.1236">The output of this phase is a fully</text><text fill="#FFFFFF" font-family="Verdana" font-size="12.5" lengthAdjust="spacing" textLength="234.0698" x="476.1979" y="873.6744">interactive AI persona ready for chat.</text></g><g class="entity" data-entity="GMN39" data-source-line="90" data-uid="ent0040" id="entity_GMN39"><path d="M690.9271,237.9063 L690.9271,257.6654 A7.8125,7.8125 0 0 0 698.7396,265.4779 L1142.9331,265.4779 A7.8125,7.8125 0 0 0 1150.7456,257.6654 L1150.7456,240.5104 L1140.3289,230.0938 L698.7396,230.0938 A7.8125,7.8125 0 0 0 690.9271,237.9063" fill="url(#gqvr1a480ytls2)" filter="url(#fqvr1a480ytls)" style="stroke:#246BAA;stroke-width:1.0417;"/><path d="M1140.3289,230.0938 L1140.3289,236.6042 A3.9063,3.9063 0 0 0 1144.2352,240.5104 L1150.7456,240.5104 L1140.3289,230.0938" fill="url(#gqvr1a480ytls2)" style="stroke:#246BAA;stroke-width:1.0417;"/><text fill="#FFFFFF" font-family="Verdana" font-size="12.5" lengthAdjust="spacing" textLength="427.5269" x="702.3854" y="252.1132">Integration handled via a Node.js\nmiddleware for WhatsApp import.</text></g><g class="entity" data-entity="GMN42" data-source-line="94" data-uid="ent0043" id="entity_GMN42"><path d="M1494.8438,852.1875 L1494.8438,857.9688 L1436.3125,862.1354 L1494.8438,866.3021 L1494.8438,871.9466 A7.8125,7.8125 0 0 0 1502.6563,879.7591 L1870.2629,879.7591 A7.8125,7.8125 0 0 0 1878.0754,871.9466 L1878.0754,854.7917 L1867.6587,844.375 L1502.6563,844.375 A7.8125,7.8125 0 0 0 1494.8438,852.1875" fill="url(#gqvr1a480ytls2)" filter="url(#fqvr1a480ytls)" style="stroke:#246BAA;stroke-width:1.0417;"/><path d="M1867.6587,844.375 L1867.6587,850.8854 A3.9063,3.9063 0 0 0 1871.5649,854.7917 L1878.0754,854.7917 L1867.6587,844.375" fill="url(#gqvr1a480ytls2)" style="stroke:#246BAA;stroke-width:1.0417;"/><text fill="#FFFFFF" font-family="Verdana" font-size="12.5" lengthAdjust="spacing" textLength="350.9399" x="1506.3021" y="866.3944">This mode includes:\nSTT (Whisper) &#8594; RAG &#8594; LLM &#8594; TTS</text></g><!--link U to UC1--><g class="link" data-entity-1="U" data-entity-2="UC1" data-source-line="61" data-uid="lnk20" id="link_U_UC1"><path d="M862.5104,126.7187 C792.1771,126.7187 558.3333,126.7187 558.3333,126.7187 C558.3333,126.7187 558.3333,184.375 558.3333,219.3333" fill="none" id="U-to-UC1" style="stroke:#34495E;stroke-width:3.125;"/><polygon fill="#34495E" points="558.3333,225.5833,562.5,216.2083,558.3333,220.375,554.1667,216.2083,558.3333,225.5833" style="stroke:#34495E;stroke-width:3.125;"/></g><!--link U to UC2--><g class="link" data-entity-1="U" data-entity-2="UC2" data-source-line="62" data-uid="lnk21" id="link_U_UC2"><path d="M862.3958,89.2187 C742.75,89.2187 123.9583,89.2187 123.9583,89.2187 C123.9583,89.2187 123.9583,177.8229 123.9583,220.8021" fill="none" id="U-to-UC2" style="stroke:#34495E;stroke-width:3.125;"/><polygon fill="#34495E" points="123.9583,227.0521,128.125,217.6771,123.9583,221.8438,119.7917,217.6771,123.9583,227.0521" style="stroke:#34495E;stroke-width:3.125;"/></g><!--link U to UC3--><g class="link" data-entity-1="U" data-entity-2="UC3" data-source-line="63" data-uid="lnk22" id="link_U_UC3"><path d="M862.5833,107.9687 C764.9063,107.9687 337.5,107.9687 337.5,107.9687 C337.5,107.9687 337.5,182.4271 337.5,221.2083" fill="none" id="U-to-UC3" style="stroke:#34495E;stroke-width:3.125;"/><polygon fill="#34495E" points="337.5,227.4583,341.6667,218.0833,337.5,222.25,333.3333,218.0833,337.5,227.4583" style="stroke:#34495E;stroke-width:3.125;"/></g><!--link UC1 to P1--><g class="link" data-entity-1="UC1" data-entity-2="P1" data-source-line="65" data-uid="lnk23" id="link_UC1_P1"><path d="M604.6979,267.2188 C604.6979,300.6875 604.6979,362.9479 604.6979,400.4479" fill="none" id="UC1-to-P1" style="stroke:#34495E;stroke-width:3.125;"/><polygon fill="#34495E" points="604.6979,406.6979,608.8646,397.3229,604.6979,401.4896,600.5313,397.3229,604.6979,406.6979" style="stroke:#34495E;stroke-width:3.125;"/></g><!--link UC2 to WA--><g class="link" data-entity-1="UC2" data-entity-2="WA" data-source-line="66" data-uid="lnk24" id="link_UC2_WA"><path d="M135.1458,268.2813 C135.1458,301.3646 135.1458,360.3958 135.1458,397.9688" fill="none" id="UC2-to-WA" style="stroke:#34495E;stroke-width:3.125;"/><polygon fill="#34495E" points="135.1458,404.2188,139.3125,394.8438,135.1458,399.0104,130.9792,394.8438,135.1458,404.2188" style="stroke:#34495E;stroke-width:3.125;"/></g><!--link WA to P1--><g class="link" data-entity-1="WA" data-entity-2="P1" data-source-line="67" data-uid="lnk25" id="link_WA_P1"><path d="M224.6042,404.2292 C224.6042,388.2604 224.6042,371.5104 224.6042,371.5104 C224.6042,371.5104 554.6667,371.5104 554.6667,371.5104 C554.6667,371.5104 554.6667,385.9688 554.6667,403.2813" fill="none" id="WA-to-P1" style="stroke:#34495E;stroke-width:3.125;"/><polygon fill="#34495E" points="554.6667,409.5313,558.8333,400.1563,554.6667,404.3229,550.5,400.1563,554.6667,409.5313" style="stroke:#34495E;stroke-width:3.125;"/></g><!--link UC3 to TG--><g class="link" data-entity-1="UC3" data-entity-2="TG" data-source-line="69" data-uid="lnk26" id="link_UC3_TG"><path d="M339.5833,268.2813 C339.5833,301.3646 339.5833,360.3958 339.5833,397.9688" fill="none" id="UC3-to-TG" style="stroke:#34495E;stroke-width:3.125;"/><polygon fill="#34495E" points="339.5833,404.2188,343.75,394.8438,339.5833,399.0104,335.4167,394.8438,339.5833,404.2188" style="stroke:#34495E;stroke-width:3.125;"/></g><!--link TG to P1--><g class="link" data-entity-1="TG" data-entity-2="P1" data-source-line="70" data-uid="lnk27" id="link_TG_P1"><path d="M407.5833,432.9688 C437.2396,432.9688 466.1979,432.9688 498.1042,432.9688" fill="none" id="TG-to-P1" style="stroke:#34495E;stroke-width:3.125;"/><polygon fill="#34495E" points="504.3542,432.9688,494.9792,428.8021,499.1458,432.9688,494.9792,437.1354,504.3542,432.9688" style="stroke:#34495E;stroke-width:3.125;"/></g><!--link P1 to P2--><g class="link" data-entity-1="P1" data-entity-2="P2" data-source-line="72" data-uid="lnk28" id="link_P1_P2"><path d="M596.875,458.6146 C596.875,478.1771 596.875,498.3854 596.875,516.5104" fill="none" id="P1-to-P2" style="stroke:#34495E;stroke-width:3.125;"/><polygon fill="#34495E" points="596.875,522.7604,601.0417,513.3854,596.875,517.5521,592.7083,513.3854,596.875,522.7604" style="stroke:#34495E;stroke-width:3.125;"/></g><!--link P2 to P3--><g class="link" data-entity-1="P2" data-entity-2="P3" data-source-line="73" data-uid="lnk29" id="link_P2_P3"><path d="M596.875,563.6875 C596.875,581.2708 596.875,600.5417 596.875,619.5104" fill="none" id="P2-to-P3" style="stroke:#34495E;stroke-width:3.125;"/><polygon fill="#34495E" points="596.875,625.7604,601.0417,616.3854,596.875,620.5521,592.7083,616.3854,596.875,625.7604" style="stroke:#34495E;stroke-width:3.125;"/></g><!--link P3 to I1--><g class="link" data-entity-1="P3" data-entity-2="I1" data-source-line="75" data-uid="lnk30" id="link_P3_I1"><path d="M675.6667,664.2188 C755.4479,664.2188 867.9792,664.2188 867.9792,664.2188 C867.9792,664.2188 867.9792,787.3333 867.9792,836.8438" fill="none" id="P3-to-I1" style="stroke:#34495E;stroke-width:3.125;"/><polygon fill="#34495E" points="867.9792,843.0938,872.1458,833.7188,867.9792,837.8854,863.8125,833.7188,867.9792,843.0938" style="stroke:#34495E;stroke-width:3.125;"/></g><!--link P3 to I2--><g class="link" data-entity-1="P3" data-entity-2="I2" data-source-line="76" data-uid="lnk31" id="link_P3_I2"><path d="M687.9375,651.7188 C828.8542,651.7188 1085.625,651.7188 1085.625,651.7188 C1085.625,651.7188 1085.625,780.3542 1085.625,834.1042" fill="none" id="P3-to-I2" style="stroke:#34495E;stroke-width:3.125;"/><polygon fill="#34495E" points="1085.625,840.3542,1089.7917,830.9792,1085.625,835.1458,1081.4583,830.9792,1085.625,840.3542" style="stroke:#34495E;stroke-width:3.125;"/></g><!--link P3 to I3--><g class="link" data-entity-1="P3" data-entity-2="I3" data-source-line="77" data-uid="lnk32" id="link_P3_I3"><path d="M677.25,639.2188 C864.8125,639.2188 1319.9375,639.2188 1319.9375,639.2188 C1319.9375,639.2188 1319.9375,782.9271 1319.9375,836.8229" fill="none" id="P3-to-I3" style="stroke:#34495E;stroke-width:3.125;"/><polygon fill="#34495E" points="1319.9375,843.0729,1324.1042,833.6979,1319.9375,837.8646,1315.7708,833.6979,1319.9375,843.0729" style="stroke:#34495E;stroke-width:3.125;"/></g><!--link I1 to U--><g class="link" data-entity-1="I1" data-entity-2="U" data-source-line="79" data-uid="lnk33" id="link_I1_U"><path d="M925.7708,843.0729 C925.7708,748.9688 925.7708,337.1354 925.7708,337.1354 C925.7708,337.1354 670.8854,337.1354 670.8854,337.1354 C670.8854,337.1354 670.8854,144.4271 670.8854,144.4271 C670.8854,144.4271 803.5313,144.4271 856.1563,144.4271" fill="none" id="I1-to-U" style="stroke:#34495E;stroke-width:3.125;"/><polygon fill="#34495E" points="862.4063,144.4271,853.0313,140.2604,857.1979,144.4271,853.0313,148.5938,862.4063,144.4271" style="stroke:#34495E;stroke-width:3.125;"/></g><!--link I2 to U--><g class="link" data-entity-1="I2" data-entity-2="U" data-source-line="80" data-uid="lnk34" id="link_I2_U"><path d="M1188.0313,844.0208 C1188.0313,731.5833 1188.0313,131.9271 1188.0313,131.9271 C1188.0313,131.9271 975.6146,131.9271 908.1354,131.9271" fill="none" id="I2-to-U" style="stroke:#34495E;stroke-width:3.125;"/><polygon fill="#34495E" points="901.8854,131.9271,911.2604,136.0938,907.0938,131.9271,911.2604,127.7604,901.8854,131.9271" style="stroke:#34495E;stroke-width:3.125;"/></g><!--link I3 to U--><g class="link" data-entity-1="I3" data-entity-2="U" data-source-line="81" data-uid="lnk35" id="link_I3_U"><path d="M1377.9792,842.8958 C1377.9792,724.8438 1377.9792,101.7187 1377.9792,101.7187 C1377.9792,101.7187 1000.4688,101.7187 908.2813,101.7187" fill="none" id="I3-to-U" style="stroke:#34495E;stroke-width:3.125;"/><polygon fill="#34495E" points="902.0313,101.7187,911.4063,105.8854,907.2396,101.7187,911.4063,97.5521,902.0313,101.7187" style="stroke:#34495E;stroke-width:3.125;"/></g><!--link UC2 to GMN39--><g class="link" data-entity-1="UC2" data-entity-2="GMN39" data-source-line="90" data-uid="lnk41" id="link_UC2_GMN39"><path d="M174.4583,264.8958 C174.4583,281.375 174.4583,303.8021 174.4583,303.8021 C174.4583,303.8021 711.0104,303.8021 711.0104,303.8021 C711.0104,303.8021 711.0104,282.1979 711.0104,265.8229" fill="none" id="UC2-GMN39" style="stroke:#34495E;stroke-width:3.125;stroke-dasharray:7.0,7.0;"/></g><!--SRC=[ZLNDRjD04BxxAOOY0JqKDNPIr1wGtD16bYW4uj83vR2nn_6spgxPNJSDY2id3gWl03SkN7Wbde17O7RzGzfGWG_9PFw-Rx-PTUwO7ES8kcG95cpg6MuAX3228wwKLB05Gpal2pG8OoNFC37m_0BL1SU5v-bpBagcs1ocB3cVALc9T2WBAhkR3R976Ll9q3bBvOAB6HXLuKh0LILI2LJG6wm42YxGB4i4gKmkLz4KqM1YHaJVUq3F_XgwU-gOL2cgnhyxO0Esu_o7KfZ6woS13hOxxuI_G-ZrlG-ha9N6XEbR0NVOT3l5TS0-szr6_oRW2hsGL5uqxg3VtntW3Hx1THv98QlqDXPfXZkukyvYwayn2TQEdGRzOES6d6_XM68euLZJH9Y6uquXxu_m6x- -VFe1uzngqjk3CIej1OEXGcQu51iDnLQs3HT0kE0CNbIeROvWNE66GnZshcT7yvA63fcISpZ9cT5XMJQP_ksPCHOu8v6QJAVSDSRVlZQC_Jqd7ehKhZejTe9QqswsjEasdBCPrRJd6Y6jfpiP78WPBMQRUOrCA5Yn91MVCCDWmKqEJvyUdOe78oNVGZYEDXspSM-zikdlBbd6YUqzsEUoJlVNqnirNw4Rr17EfLeIpc4OJIODI3tk3siQN7rlD0ZswWb7mX1qiZgrxlWrJYrIhSHVpzssSEEDyTB0a8RcU4IzVwI_aZn1EeBMX5YN-FzLCcH5KUUl7BM-7dOvFyF19TNGH61YtrSquPRxwtQbx4pUs1OdOHreDwWBn2FRzJviRTaNeH3eTDBsjtTCdu_TxhQMtrc1vr70_Q1nKyIP17CIjaxo1iucZ7ZKUSTDbU-DwoAQf3UkCqdCrl8xYy9HNNFiHNvh18tHS7yc3TQi1LambSRGXP6PxHxdz8gjJ5aPwp0vrr2w3I63GLOLnTBZxP9Sk3-7ihaMj1xf4ZBQmOGaVUZP2sK1l1f6yLdkcbffx0XdpHtAcKWBsYixJKRaKdnufa_5dAVaNZ25hcSt9kuk-Utj8ti8OZkdHi15KbGfwhrJCObZU7124UAx2Jy_Ni7BSEI-wLwwxpYUT5r_0m00]--></g></svg>