<svg xmlns="http://www.w3.org/2000/svg" xmlns:xlink="http://www.w3.org/1999/xlink" contentStyleType="text/css" data-diagram-type="DESCRIPTION" height="840px" preserveAspectRatio="none" style="width:1502px;height:840px;background:#FFFFFF;" version="1.1" viewBox="0 0 1502 840" width="1502px" zoomAndPan="magnify"><title>AI Mirror - Complete Project Overview</title><defs/><g><g class="title" data-source-line="2"><text fill="#000000" font-family="sans-serif" font-size="14" font-weight="bold" lengthAdjust="spacing" textLength="300.1182" x="594.4068" y="22.9951">AI Mirror - Complete Project Overview</text></g><!--cluster Phase 1: Persona Creation--><g class="cluster" data-entity="Phase 1: Persona Creation" data-source-line="25" data-uid="ent0003" id="cluster_Phase 1: Persona Creation"><rect fill="#55588F" height="95.58" rx="3.5" ry="3.5" style="stroke:#34495E;stroke-width:1;" width="667" x="7" y="144.0869"/><text fill="#FFFFFF" font-family="sans-serif" font-size="14" font-weight="bold" lengthAdjust="spacing" textLength="208.6875" x="236.1563" y="159.082">Phase 1: Persona Creation</text></g><!--cluster Phase 2: Backend AI Processing--><g class="cluster" data-entity="Phase 2: Backend AI Processing" data-source-line="31" data-uid="ent0007" id="cluster_Phase 2: Backend AI Processing"><rect fill="#55588F" height="381.64" rx="3.5" ry="3.5" style="stroke:#34495E;stroke-width:1;" width="314" x="441" y="263.6669"/><text fill="#FFFFFF" font-family="sans-serif" font-size="14" font-weight="bold" lengthAdjust="spacing" textLength="251.624" x="472.188" y="278.662">Phase 2: Backend AI Processing</text></g><!--cluster <b><color:white>Persona Generation Engine</color></b>--><g class="cluster" data-entity="&lt;b&gt;&lt;color:white&gt;Persona Generation Engine&lt;/color&gt;&lt;/b&gt;" data-source-line="32" data-uid="ent0008" id="cluster_&lt;b&gt;&lt;color:white&gt;Persona Generation Engine&lt;/color&gt;&lt;/b&gt;"><rect fill="#55588F" height="314.64" rx="3.5" ry="3.5" style="stroke:#34495E;stroke-width:1;" width="266" x="465" y="306.6669"/><text fill="#FFFFFF" font-family="sans-serif" font-size="14" font-weight="bold" lengthAdjust="spacing" textLength="215.4619" x="490.269" y="321.662">Persona Generation Engine</text></g><!--cluster Phase 3: User Interaction--><g class="cluster" data-entity="Phase 3: User Interaction" data-source-line="39" data-uid="ent0012" id="cluster_Phase 3: User Interaction"><rect fill="#55588F" height="165.06" rx="3.5" ry="3.5" style="stroke:#34495E;stroke-width:1;" width="719" x="499" y="669.3069"/><text fill="#FFFFFF" font-family="sans-serif" font-size="14" font-weight="bold" lengthAdjust="spacing" textLength="200.6553" x="758.1724" y="684.302">Phase 3: User Interaction</text></g><!--cluster <b><color:white>Created AI Persona</color></b>--><g class="cluster" data-entity="&lt;b&gt;&lt;color:white&gt;Created AI Persona&lt;/color&gt;&lt;/b&gt;" data-source-line="40" data-uid="ent0013" id="cluster_&lt;b&gt;&lt;color:white&gt;Created AI Persona&lt;/color&gt;&lt;/b&gt;"><rect fill="#55588F" height="98.06" rx="3.5" ry="3.5" style="stroke:#34495E;stroke-width:1;" width="671" x="523" y="712.3069"/><text fill="#FFFFFF" font-family="sans-serif" font-size="14" font-weight="bold" lengthAdjust="spacing" textLength="152.1475" x="782.4263" y="727.302">Created AI Persona</text></g><!--cluster External Services--><g class="cluster" data-entity="External Services" data-source-line="47" data-uid="ent0017" id="cluster_External Services"><path d="M87.0091,320.2544 C92.6976,309.5778 100.4788,306.8866 109.3853,316.7486 C116.037,306.0145 126.6642,306.6801 133.4602,316.5802 C140.9193,304.9341 149.3146,306.2544 156.7216,316.6353 C164.4179,304.9039 171.9258,303.0565 180.893,315.357 C188.044,304.412 198.1265,303.4581 205.2853,315.3487 C209.9314,305.397 219.9671,303.5275 226.2945,313.5833 C232.7578,301.6426 243.4674,302.251 250.7151,312.7289 C258.1141,302.3334 268.3723,304.0987 272.778,315.7275 C279.7927,305.2864 290.0369,304.8592 296.5709,316.2514 C302.9816,306.0268 312.5422,305.9146 317.3945,317.7242 C324.6661,306.245 333.6577,304.3729 341.28,317.3821 C349.2058,308.2849 357.0401,306.3226 363.6939,318.7092 C370.6489,307.3793 380.3072,307.3071 387.5538,318.3988 C396.527,306.0274 403.8042,309.5027 411.5268,319.7257 C434.2782,330.8805 430.4154,346.8516 414.26,360.6075 C432.6118,374.5637 427.7238,389.6485 410.5037,400.2326 C405.9695,412.2536 395.0111,412.3525 387.7349,403.1782 C379.747,412.8314 372.9114,413.4255 365.214,402.8547 C360.0394,412.7184 350.7143,415.2277 343.7664,404.7218 C336.7434,417.5723 328.597,415.2278 320.4646,405.8868 C314.3895,419.2983 304.4125,422.1625 294.8636,409.2675 C288.8236,417.8611 280.7136,417.7923 274.7574,409.1696 C268.1888,420.7036 260.4455,424.3487 250.1176,413.2651 C239.7916,423.0864 231.0089,423.7284 224.6733,409.1106 C219.21,418.1929 209.2843,418.351 204.4694,408.4215 C197.7203,419.6623 187.7663,419.253 180.6479,408.8275 C171.7093,418.9102 162.5413,419.4549 156.4218,405.934 C146.718,416.5331 138.0351,415.5419 132.7073,401.6898 C127.0396,412.6764 118.1595,411.9479 112.5475,401.6371 C106.0828,413.3087 94.9387,411.8455 88.291,401.8419 C66.5941,393.2082 66.464,374.5312 83.5465,361.3533 C65.5457,349.1405 68.8422,329.42 87.0091,320.2544" fill="#ECF0F1" style="stroke:#BDC3C7;stroke-width:1;"/><text fill="#000000" font-family="sans-serif" font-size="14" font-weight="bold" lengthAdjust="spacing" textLength="137.3066" x="178.8467" y="334.922">External Services</text></g><!--entity UC1--><g class="entity" data-entity="UC1" data-source-line="26" data-uid="ent0004" id="entity_UC1"><ellipse cx="559.0036" cy="201.3736" fill="#3498DB" rx="99.4336" ry="22.2867" style="stroke:#2980B9;stroke-width:0.5;"/><text fill="#FFFFFF" font-family="sans-serif" font-size="14" lengthAdjust="spacing" textLength="174.8086" x="471.5993" y="206.022">Create via Questionnaire</text></g><!--entity UC2--><g class="entity" data-entity="UC2" data-source-line="27" data-uid="ent0005" id="entity_UC2"><ellipse cx="116.0048" cy="201.3738" fill="#3498DB" rx="92.6348" ry="20.927" style="stroke:#2980B9;stroke-width:0.5;"/><text fill="#FFFFFF" font-family="sans-serif" font-size="14" lengthAdjust="spacing" textLength="159.6807" x="36.1645" y="206.0223">Import from WhatsApp</text></g><!--entity UC3--><g class="entity" data-entity="UC3" data-source-line="28" data-uid="ent0006" id="entity_UC3"><ellipse cx="333.999" cy="201.3787" fill="#3498DB" rx="90.459" ry="20.4918" style="stroke:#2980B9;stroke-width:0.5;"/><text fill="#FFFFFF" font-family="sans-serif" font-size="14" lengthAdjust="spacing" textLength="154.7793" x="256.6094" y="206.0271">Import from Telegram</text></g><!--entity P1--><g class="entity" data-entity="P1" data-source-line="33" data-uid="ent0009" id="entity_P1"><ellipse cx="595.9977" cy="367.0764" fill="#3498DB" rx="115.0477" ry="25.4095" style="stroke:#2980B9;stroke-width:0.5;"/><text fill="#FFFFFF" font-family="sans-serif" font-size="14" lengthAdjust="spacing" textLength="208.7559" x="491.6197" y="371.7248">Analyze Data with LLM (Groq)</text></g><!--entity P2--><g class="entity" data-entity="P2" data-source-line="34" data-uid="ent0010" id="entity_P2"><ellipse cx="597" cy="473.0689" fill="#3498DB" rx="90.91" ry="20.582" style="stroke:#2980B9;stroke-width:0.5;"/><text fill="#FFFFFF" font-family="sans-serif" font-size="14" lengthAdjust="spacing" textLength="155.7979" x="519.1011" y="477.7173">Generate Profile &amp; Bio</text></g><!--entity P3--><g class="entity" data-entity="P3" data-source-line="35" data-uid="ent0011" id="entity_P3"><ellipse cx="598.0021" cy="579.4773" fill="#3498DB" rx="117.1521" ry="25.8304" style="stroke:#2980B9;stroke-width:0.5;"/><text fill="#FFFFFF" font-family="sans-serif" font-size="14" lengthAdjust="spacing" textLength="213.2676" x="491.3683" y="584.1257">Create Vector Memory (FAISS)</text></g><!--entity I1--><g class="entity" data-entity="I1" data-source-line="41" data-uid="ent0014" id="entity_I1"><ellipse cx="628.0023" cy="770.8373" fill="#3498DB" rx="89.4023" ry="20.2805" style="stroke:#2980B9;stroke-width:0.5;"/><text fill="#FFFFFF" font-family="sans-serif" font-size="14" lengthAdjust="spacing" textLength="152.3867" x="551.8089" y="775.4858">Interact via Text Chat</text></g><!--entity I2--><g class="entity" data-entity="I2" data-source-line="42" data-uid="ent0015" id="entity_I2"><ellipse cx="857.9981" cy="770.8365" fill="#3498DB" rx="105.6481" ry="23.5296" style="stroke:#2980B9;stroke-width:0.5;"/><text fill="#FFFFFF" font-family="sans-serif" font-size="14" lengthAdjust="spacing" textLength="188.4326" x="763.7818" y="775.4849">Interact via Voice Message</text></g><!--entity I3--><g class="entity" data-entity="I3" data-source-line="43" data-uid="ent0016" id="entity_I3"><ellipse cx="1088.0042" cy="770.8397" fill="#3498DB" rx="89.7642" ry="20.3528" style="stroke:#2980B9;stroke-width:0.5;"/><text fill="#FFFFFF" font-family="sans-serif" font-size="14" lengthAdjust="spacing" textLength="153.207" x="1011.4007" y="775.4882">Interact via Voice Call</text></g><!--entity WhatsApp API--><g class="entity" data-entity="WhatsApp API" data-source-line="48" data-uid="ent0018" id="entity_WhatsApp API"><rect fill="#F1F1F1" height="46.2969" rx="3.5" ry="3.5" style="stroke:#181818;stroke-width:0.5;" width="138.0273" x="93.99" y="343.9269"/><rect fill="#F1F1F1" height="10" style="stroke:#181818;stroke-width:0.5;" width="15" x="212.0173" y="348.9269"/><rect fill="#F1F1F1" height="2" style="stroke:#181818;stroke-width:0.5;" width="4" x="210.0173" y="350.9269"/><rect fill="#F1F1F1" height="2" style="stroke:#181818;stroke-width:0.5;" width="4" x="210.0173" y="354.9269"/><text fill="#000000" font-family="sans-serif" font-size="14" lengthAdjust="spacing" textLength="98.0273" x="108.99" y="376.922">WhatsApp API</text></g><!--entity Telegram API--><g class="entity" data-entity="Telegram API" data-source-line="49" data-uid="ent0019" id="entity_Telegram API"><rect fill="#F1F1F1" height="46.2969" rx="3.5" ry="3.5" style="stroke:#181818;stroke-width:0.5;" width="133.126" x="267.44" y="343.9269"/><rect fill="#F1F1F1" height="10" style="stroke:#181818;stroke-width:0.5;" width="15" x="380.566" y="348.9269"/><rect fill="#F1F1F1" height="2" style="stroke:#181818;stroke-width:0.5;" width="4" x="378.566" y="350.9269"/><rect fill="#F1F1F1" height="2" style="stroke:#181818;stroke-width:0.5;" width="4" x="378.566" y="354.9269"/><text fill="#000000" font-family="sans-serif" font-size="14" lengthAdjust="spacing" textLength="93.126" x="282.44" y="376.922">Telegram API</text></g><!--entity User--><g class="entity" data-entity="User" data-source-line="23" data-uid="ent0002" id="entity_User"><ellipse cx="751.9951" cy="51.2969" fill="#454645" rx="8" ry="8" style="stroke:#454645;stroke-width:0.5;"/><path d="M751.9951,59.2969 L751.9951,86.2969 M738.9951,67.2969 L764.9951,67.2969 M751.9951,86.2969 L738.9951,101.2969 M751.9951,86.2969 L764.9951,101.2969" fill="none" style="stroke:#454645;stroke-width:0.5;"/><text fill="#454645" font-family="sans-serif" font-size="14" lengthAdjust="spacing" textLength="31.9102" x="736.04" y="115.792">User</text></g><g class="entity" data-entity="GMN36" data-source-line="75" data-uid="ent0037" id="entity_GMN36"><path d="M296.8,746.6369 L296.8,795.0353 A3.5,3.5 0 0 0 300.3,798.5353 L479.7072,798.5353 A3.5,3.5 0 0 0 483.2072,795.0353 L483.2072,753.1369 L473.2072,743.1369 L423.68,743.1369 L571.23,604.8469 L415.68,743.1369 L300.3,743.1369 A3.5,3.5 0 0 0 296.8,746.6369" fill="#7FFFD4" style="stroke:#454645;stroke-width:1.5;"/><path d="M473.2072,743.1369 L473.2072,751.3869 A1.75,1.75 0 0 0 474.9572,753.1369 L483.2072,753.1369 L473.2072,743.1369" fill="#7FFFD4" style="stroke:#454645;stroke-width:1.5;"/><text fill="#454645" font-family="sans-serif" font-size="13" lengthAdjust="spacing" textLength="159.0659" x="302.8" y="760.2038">The output of this phase</text><text fill="#454645" font-family="sans-serif" font-size="13" lengthAdjust="spacing" textLength="165.4072" x="302.8" y="775.3366">is a complete, interactive</text><text fill="#454645" font-family="sans-serif" font-size="13" lengthAdjust="spacing" textLength="164.0552" x="302.8" y="790.4694">AI persona ready for use.</text></g><g class="entity" data-entity="GMN39" data-source-line="81" data-uid="ent0040" id="entity_GMN39"><path d="M693.34,184.7469 L693.34,218.0125 A3.5,3.5 0 0 0 696.84,221.5125 L889.1647,221.5125 A3.5,3.5 0 0 0 892.6647,218.0125 L892.6647,191.2469 L882.6647,181.2469 L696.84,181.2469 A3.5,3.5 0 0 0 693.34,184.7469" fill="#7FFFD4" style="stroke:#454645;stroke-width:1.5;"/><path d="M882.6647,181.2469 L882.6647,189.4969 A1.75,1.75 0 0 0 884.4147,191.2469 L892.6647,191.2469 L882.6647,181.2469" fill="#7FFFD4" style="stroke:#454645;stroke-width:1;"/><text fill="#454645" font-family="sans-serif" font-size="13" lengthAdjust="spacing" textLength="147.7988" x="699.34" y="198.3138">Handled by a separate</text><text fill="#454645" font-family="sans-serif" font-size="13" lengthAdjust="spacing" textLength="178.3247" x="699.34" y="213.4466">Node.js middleware server.</text></g><g class="entity" data-entity="GMN42" data-source-line="86" data-uid="ent0043" id="entity_GMN42"><path d="M1234.07,754.2069 L1234.07,766.8369 L1178.08,770.8369 L1234.07,774.8369 L1234.07,787.4725 A3.5,3.5 0 0 0 1237.57,790.9725 L1492.4318,790.9725 A3.5,3.5 0 0 0 1495.9318,787.4725 L1495.9318,760.7069 L1485.9318,750.7069 L1237.57,750.7069 A3.5,3.5 0 0 0 1234.07,754.2069" fill="#7FFFD4" style="stroke:#454645;stroke-width:1.5;"/><path d="M1485.9318,750.7069 L1485.9318,758.9569 A1.75,1.75 0 0 0 1487.6818,760.7069 L1495.9318,760.7069 L1485.9318,750.7069" fill="#7FFFD4" style="stroke:#454645;stroke-width:1.5;"/><text fill="#454645" font-family="sans-serif" font-size="13" lengthAdjust="spacing" textLength="174.0337" x="1240.07" y="767.7738">This mode uses a full loop:</text><text fill="#454645" font-family="sans-serif" font-size="13" lengthAdjust="spacing" textLength="240.8618" x="1240.07" y="782.9066">STT (Whisper) -&gt; RAG -&gt; LLM -&gt; TTS</text></g><!--link User to UC1--><g class="link" data-entity-1="User" data-entity-2="UC1" data-source-line="53" data-uid="lnk20" id="link_User_UC1"><path d="M735.54,92.0369 C703.91,111.4469 639.1841,151.1791 597.4441,176.7891" fill="none" id="User-to-UC1" style="stroke:#2C3E50;stroke-width:1;"/><polygon fill="#2C3E50" points="592.33,179.9269,602.093,178.6296,596.5918,177.312,597.9093,171.8107,592.33,179.9269" style="stroke:#2C3E50;stroke-width:1;"/></g><!--link User to UC2--><g class="link" data-entity-1="User" data-entity-2="UC2" data-source-line="54" data-uid="lnk21" id="link_User_UC2"><path d="M735.57,82.6969 C657.57,86.4169 324.39,103.9469 226,136.0869 C195.09,146.1869 168.3282,162.4501 146.9482,177.3901" fill="none" id="User-to-UC2" style="stroke:#2C3E50;stroke-width:1;"/><polygon fill="#2C3E50" points="142.03,180.8269,151.6985,178.9505,146.1285,177.9629,147.1161,172.3929,142.03,180.8269" style="stroke:#2C3E50;stroke-width:1;"/></g><!--link User to UC3--><g class="link" data-entity-1="User" data-entity-2="UC3" data-source-line="55" data-uid="lnk22" id="link_User_UC3"><path d="M735.65,82.7169 C688.6,85.3769 549.33,96.3169 442,136.0869 C411.92,147.2369 385.7095,163.3564 364.6395,177.9764" fill="none" id="User-to-UC3" style="stroke:#2C3E50;stroke-width:1;"/><polygon fill="#2C3E50" points="359.71,181.3969,369.3846,179.5525,363.8179,178.5465,364.824,172.9798,359.71,181.3969" style="stroke:#2C3E50;stroke-width:1;"/></g><!--link UC1 to P1--><g class="link" data-entity-1="UC1" data-entity-2="P1" data-source-line="57" data-uid="lnk23" id="link_UC1_P1"><path d="M563.91,224.1169 C570.77,254.4669 581.8673,303.5445 589.0773,335.4445" fill="none" id="UC1-to-P1" style="stroke:#2C3E50;stroke-width:1;"/><polygon fill="#2C3E50" points="590.4,341.2969,592.3175,331.6365,589.2977,336.4199,584.5143,333.4001,590.4,341.2969" style="stroke:#2C3E50;stroke-width:1;"/></g><!--link UC2 to WhatsApp API--><g class="link" data-entity-1="UC2" data-entity-2="WhatsApp API" data-source-line="58" data-uid="lnk24" id="link_UC2_WhatsApp API"><path d="M121.76,222.4469 C130.56,253.0969 145.6453,305.6096 154.8553,337.7096" fill="none" id="UC2-to-WhatsApp API" style="stroke:#2C3E50;stroke-width:1;"/><polygon fill="#2C3E50" points="156.51,343.4769,157.8728,333.7228,155.1311,338.6708,150.183,335.9291,156.51,343.4769" style="stroke:#2C3E50;stroke-width:1;"/></g><!--link WhatsApp API to P1--><g class="link" data-entity-1="WhatsApp API" data-entity-2="P1" data-source-line="59" data-uid="lnk25" id="link_WhatsApp API_P1"><path d="M174.95,343.5469 C189.25,317.8769 215.62,277.5169 250,255.6669 C256.73,251.3869 259.57,252.5569 267.5,251.6669 C296.65,248.3769 370.35,248.3769 399.5,251.6669 C468.3,259.4269 530.3898,306.5047 565.6298,338.0547" fill="none" id="WhatsApp API-to-P1" style="stroke:#2C3E50;stroke-width:1;"/><polygon fill="#2C3E50" points="570.1,342.0569,566.0628,333.0735,566.3748,338.7218,560.7266,339.0338,570.1,342.0569" style="stroke:#2C3E50;stroke-width:1;"/></g><!--link UC3 to Telegram API--><g class="link" data-entity-1="UC3" data-entity-2="Telegram API" data-source-line="60" data-uid="lnk26" id="link_UC3_Telegram API"><path d="M334,222.1269 C334,252.7369 334,305.4669 334,337.6369" fill="none" id="UC3-to-Telegram API" style="stroke:#2C3E50;stroke-width:1;"/><polygon fill="#2C3E50" points="334,343.6369,338,334.6369,334,338.6369,330,334.6369,334,343.6369" style="stroke:#2C3E50;stroke-width:1;"/></g><!--link Telegram API to P1--><g class="link" data-entity-1="Telegram API" data-entity-2="P1" data-source-line="61" data-uid="lnk27" id="link_Telegram API_P1"><path d="M401.04,367.0769 C427.56,367.0769 448.09,367.0769 474.62,367.0769" fill="none" id="Telegram API-to-P1" style="stroke:#2C3E50;stroke-width:1;"/><polygon fill="#2C3E50" points="480.62,367.0769,471.62,363.0769,475.62,367.0769,471.62,371.0769,480.62,367.0769" style="stroke:#2C3E50;stroke-width:1;"/></g><!--link P1 to P2--><g class="link" data-entity-1="P1" data-entity-2="P2" data-source-line="63" data-uid="lnk28" id="link_P1_P2"><path d="M596.24,392.9769 C596.41,411.1269 596.593,429.3871 596.753,446.2271" fill="none" id="P1-to-P2" style="stroke:#2C3E50;stroke-width:1;"/><polygon fill="#2C3E50" points="596.81,452.2269,600.7243,443.1893,596.7625,447.2271,592.7247,443.2653,596.81,452.2269" style="stroke:#2C3E50;stroke-width:1;"/></g><!--link P2 to P3--><g class="link" data-entity-1="P2" data-entity-2="P3" data-source-line="64" data-uid="lnk29" id="link_P2_P3"><path d="M597.19,493.7069 C597.35,510.5969 597.5211,529.0672 597.7011,547.3872" fill="none" id="P2-to-P3" style="stroke:#2C3E50;stroke-width:1;"/><polygon fill="#2C3E50" points="597.76,553.3869,601.6714,544.348,597.7109,548.3871,593.6718,544.4266,597.76,553.3869" style="stroke:#2C3E50;stroke-width:1;"/></g><!--link P3 to I1--><g class="link" data-entity-1="P3" data-entity-2="I1" data-source-line="66" data-uid="lnk30" id="link_P3_I1"><path d="M601.98,605.6269 C608.02,643.7569 618.4411,709.4908 623.9311,744.1408" fill="none" id="P3-to-I1" style="stroke:#2C3E50;stroke-width:1;"/><polygon fill="#2C3E50" points="624.87,750.0669,627.4123,740.5518,624.0876,745.1285,619.5109,741.8037,624.87,750.0669" style="stroke:#2C3E50;stroke-width:1;"/></g><!--link P3 to I2--><g class="link" data-entity-1="P3" data-entity-2="I2" data-source-line="67" data-uid="lnk31" id="link_P3_I2"><path d="M642.22,603.7569 C669.73,618.9069 705.39,639.8069 735,661.3069 C772.33,688.4169 807.3475,720.5156 831.2075,743.4856" fill="none" id="P3-to-I2" style="stroke:#2C3E50;stroke-width:1;"/><polygon fill="#2C3E50" points="835.53,747.6469,831.8204,738.5233,831.9279,744.1792,826.2721,744.2866,835.53,747.6469" style="stroke:#2C3E50;stroke-width:1;"/></g><!--link P3 to I3--><g class="link" data-entity-1="P3" data-entity-2="I3" data-source-line="68" data-uid="lnk32" id="link_P3_I3"><path d="M710.38,587.0269 C790.04,595.6369 897.22,615.5069 981,661.3069 C1021.4,683.3869 1052.7548,720.7636 1070.9748,745.5336" fill="none" id="P3-to-I3" style="stroke:#2C3E50;stroke-width:1;"/><polygon fill="#2C3E50" points="1074.53,750.3669,1072.4194,740.7468,1071.5673,746.3391,1065.975,745.4871,1074.53,750.3669" style="stroke:#2C3E50;stroke-width:1;"/></g><!--link I1 to User--><g class="link" data-entity-1="I1" data-entity-2="User" data-source-line="70" data-uid="lnk33" id="link_I1_User"><path d="M646.18,750.6369 C667.18,728.6369 702.95,691.7269 735,661.3069 C825.95,575.0069 946,599.4469 946,474.0669 C946,366.0769 946,366.0769 946,366.0769 C946,262.6169 976.49,215.3569 910,136.0869 C873.66,92.7669 807.0017,84.3416 774.4417,82.6316" fill="none" id="I1-to-User" style="stroke:#2C3E50;stroke-width:1;"/><polygon fill="#2C3E50" points="768.45,82.3169,777.2278,86.7834,773.4431,82.5791,777.6474,78.7944,768.45,82.3169" style="stroke:#2C3E50;stroke-width:1;"/></g><!--link I2 to User--><g class="link" data-entity-1="I2" data-entity-2="User" data-source-line="71" data-uid="lnk34" id="link_I2_User"><path d="M886.98,747.8169 C913.06,726.4569 950.51,691.7169 972,653.3069 C1012.11,581.6369 1017,556.1969 1017,474.0669 C1017,366.0769 1017,366.0769 1017,366.0769 C1017,261.9169 1043.85,211.4869 972,136.0869 C943.57,106.2669 820.3007,89.6722 774.2907,84.3822" fill="none" id="I2-to-User" style="stroke:#2C3E50;stroke-width:1;"/><polygon fill="#2C3E50" points="768.33,83.6969,776.8142,88.6987,773.2973,84.268,777.728,80.7511,768.33,83.6969" style="stroke:#2C3E50;stroke-width:1;"/></g><!--link I3 to User--><g class="link" data-entity-1="I3" data-entity-2="User" data-source-line="72" data-uid="lnk35" id="link_I3_User"><path d="M1088,750.1069 C1088,702.5969 1088,578.0469 1088,474.0669 C1088,366.0769 1088,366.0769 1088,366.0769 C1088,259.7369 1100.2,208.1569 1022,136.0869 C984.38,101.4269 826.9641,87.3137 774.3641,83.4737" fill="none" id="I3-to-User" style="stroke:#2C3E50;stroke-width:1;"/><polygon fill="#2C3E50" points="768.38,83.0369,777.0649,87.6815,773.3667,83.4009,777.6474,79.7028,768.38,83.0369" style="stroke:#2C3E50;stroke-width:1;"/></g><!--link UC2 to GMN39--><g class="link" data-entity-1="UC2" data-entity-2="GMN39" data-source-line="81" data-uid="lnk41" id="link_UC2_GMN39"><path d="M140.9,180.8469 C165.28,162.3069 204.37,136.5869 243.5,127.5869 C288.22,117.3069 611.78,117.3069 656.5,127.5869 C697.59,137.0369 739.45,162.5169 765.79,180.8869" fill="none" id="UC2-GMN39" style="stroke:#2C3E50;stroke-width:1;stroke-dasharray:7.0,7.0;"/></g><!--SRC=[ZLNVRzem47xFNt5ZqjPAwm-IeW52I9HrNQHsomPj7wOzECc5k4tip35GDlL_tzb9MXXb7I-nxpxVVNVtsRpIAUO82nug9hIZkSuGHZvSSgMaWWCOoxp8K2C4IjvYfE7B0jM2uz9noZik2gPO3eeSJCpew6y7w3VHg53gLO4VfT1ZcL6erudzMV_prbCMtSsKd8kuzdKwdMwtzaaLewhjtib9huFEmpg5UOaHAni2Mw6yarut3hT3kRtkSTYpzX5Ll6pCaOUTunrSD_96cPp7kx9Yb1mdxUsiOHnvqNiJY4MQ35SbAiTvwc8hI4qjxJu4g4ef68mLCisbQDMfcd9Rrc46oE3h74k34OmhR04huMhStaJxUI6LXaJ976vIfijHKTH8TpToYXdEgDWQwHdYMsJTlgqVHMpqGsg9i2ovc3MCrmuCmk4WCfteBrEkSTWKUOu2bIqJpiIC2nmSMTXmS1GEcpWRB4U2PQjV21-OPh3aEeMBYqlOErVovxvb6xIt3zLfhAGJJeJUm2cN5TpTXjSTlaOxgalCfLh1tiUHFvdKEJnxwE7PjdXzErtm1Tq9clRQ3F_HaIfdrScgEI-seabWfJ35UmrZ6h0bwBTVW5zB7Y6LLfPiLYd7T__ho9XbMOLVwq5r9LfdzmId-S34F1YaXeRszqPvC0hy7vMfaLXbeY1lwUKH0ct3IiUsyE1WQ1Mzjd7NDvxZaDjkQEpajCk_icrkdy1U1TxaiRbjm4vG9t6TeCf12d22AWBrkbcvZojo-zKPUzDzTstjFQqT8KbeeTIQBfrCAc5DKmGvryLS6vDEUGc5KHQvQCaWgX_eTy0RYIsCawHJrFUAn1Il827rqYmF7ND5JQOwd-AprCQkte1FJCGPIIzSKV0IpIkdJRpFCiR3sn9o7fD_oHIILz6VmUw0ViMVQEPqs2GtX9Dvba4cPT4dxsGwXRqRWX3NVQ16V1kTcu-vnlIPJYUFqVy0]--></g></svg>