<svg xmlns="http://www.w3.org/2000/svg" xmlns:xlink="http://www.w3.org/1999/xlink" contentStyleType="text/css" data-diagram-type="DESCRIPTION" height="920px" preserveAspectRatio="none" style="width:1704px;height:920px;background:#FFFFFF;" version="1.1" viewBox="0 0 1704 920" width="1704px" zoomAndPan="magnify"><title>AI Mirror - System Architecture</title><defs/><g><g class="title" data-source-line="2"><text fill="#000000" font-family="sans-serif" font-size="14" font-weight="bold" lengthAdjust="spacing" textLength="247.0781" x="721.6178" y="22.9951">AI Mirror - System Architecture</text></g><!--cluster External Services--><g class="cluster" data-entity="External Services" data-source-line="4" data-uid="ent0002" id="cluster_External Services"><path d="M35.4735,763.5012 C49.0122,742.2575 65.553,734.9287 83.7684,758.4565 C97.7231,732.6178 116.2507,732.5706 132.576,756.1135 C147.2156,738.9756 168.3479,741.3871 177.22,762.7937 C189.0587,737.5845 206.6585,734.9768 225.6975,755.0925 C243.8989,727.7935 259.4225,730.1395 276.6557,756.0202 C290.8464,737.2825 308.0032,736.6523 319.6719,758.6814 C333.7589,729.3645 354.1896,731.0053 373.4519,753.2873 C386.6905,732.4245 407.0173,734.5449 417.687,755.9741 C433.7277,737.6006 448.1622,734.0055 463.3214,756.9476 C479.8625,728.1771 500.5077,731.7367 518.3819,755.5517 C532.3343,739.3963 549.9838,741.2254 558.0164,761.919 C573.8535,738.5356 597.2912,738.3019 611.4601,763.7449 C628.4273,736.6349 645.4276,741.129 661.5751,764.5577 C674.4774,743.6871 697.1902,745.8973 709.3137,765.4769 C710.4566,764.1741 711.7985,764.4571 712.353,766.0868 C724.7495,772.7279 725.4037,780.3394 715.0011,789.5533 C724.7343,796.2962 723.814,803.7414 714.6352,810.1482 C724.3717,816.354 723.2091,825.8709 712.5836,829.9692 C721.9362,842.3335 716.8672,853.1164 702.3137,856.0769 C705.8974,853.3641 707.909,854.7066 709.422,858.3813 C696.5919,880.5998 680.9148,887.5053 661.9865,864.824 C646.6295,886.5209 631.7015,886.0656 614.2513,867.2929 C594.1132,891.4599 574.1516,890.6029 561.3082,860.2139 C546.3479,880.0536 530.9048,884.1504 514.0055,862.4204 C501.8932,885.1053 480.1417,887.4467 463.4699,867.8729 C445.6973,891.0463 431.8902,886.5148 416.7867,865.0798 C405.0581,888.5929 390.5208,893.5764 371.5714,872.3828 C353.7968,891.7889 334.1635,892.1958 323.0247,865.4089 C306.5869,892.0571 289.4545,891.2546 269.5913,869.1644 C255.4151,884.5248 240.0898,888.1236 229.414,865.4653 C215.0907,890.9195 191.2041,884.2063 178.8428,863.324 C162.9313,884.9513 139.0226,883.086 126.5823,859.327 C114.5492,882.6075 92.4991,883.8893 78.6744,861.1939 C56.38,882.1896 33.0183,878.2118 21.3137,849.0769 C21.8918,849.1438 22.2313,849.5395 21.8276,850.0997 C12.6374,844.1667 12.4541,837.8709 20.5843,830.8208 C8.0275,825.7528 7.2923,818.7962 16.8532,809.802 C7.9124,801.6119 7.3461,793.4461 18.8791,787.0817 C6,773.9058 12.6423,762.2361 28.3137,758.4769 C32.6903,756.3378 35.7652,758.9878 35.4735,763.5012" fill="none" style="stroke:#696969;stroke-width:1;"/><text fill="#000000" font-family="sans-serif" font-size="14" font-weight="bold" lengthAdjust="spacing" textLength="137.3066" x="296.6604" y="776.472">External Services</text></g><!--cluster User's Device--><g class="cluster" data-entity="User's Device" data-source-line="11" data-uid="ent0007" id="cluster_User's Device"><polygon fill="none" points="165.3137,53.2969,175.3137,43.2969,832.3137,43.2969,832.3137,223.8869,822.3137,233.8869,165.3137,233.8869,165.3137,53.2969" style="stroke:#696969;stroke-width:1;"/><line style="stroke:#696969;stroke-width:1;" x1="822.3137" x2="832.3137" y1="53.2969" y2="43.2969"/><line style="stroke:#696969;stroke-width:1;" x1="165.3137" x2="822.3137" y1="53.2969" y2="53.2969"/><line style="stroke:#696969;stroke-width:1;" x1="822.3137" x2="822.3137" y1="53.2969" y2="233.8869"/><text fill="#000000" font-family="sans-serif" font-size="14" font-weight="bold" lengthAdjust="spacing" textLength="106.4287" x="441.5994" y="69.292">User's Device</text></g><!--cluster Mobile App (React Native)--><g class="cluster" data-entity="Mobile App (React Native)" data-source-line="12" data-uid="ent0008" id="cluster_Mobile App (React Native)"><polygon fill="none" points="189.3137,101.2969,199.3137,91.2969,808.3137,91.2969,808.3137,199.8869,798.3137,209.8869,189.3137,209.8869,189.3137,101.2969" style="stroke:#696969;stroke-width:1;"/><line style="stroke:#696969;stroke-width:1;" x1="798.3137" x2="808.3137" y1="101.2969" y2="91.2969"/><line style="stroke:#696969;stroke-width:1;" x1="189.3137" x2="798.3137" y1="101.2969" y2="101.2969"/><line style="stroke:#696969;stroke-width:1;" x1="798.3137" x2="798.3137" y1="101.2969" y2="209.8869"/><text fill="#000000" font-family="sans-serif" font-size="14" font-weight="bold" lengthAdjust="spacing" textLength="206.9512" x="391.3381" y="117.292">Mobile App (React Native)</text></g><!--cluster Middleware Server (for WhatsApp)--><g class="cluster" data-entity="Middleware Server (for WhatsApp)" data-source-line="19" data-uid="ent0012" id="cluster_Middleware Server (for WhatsApp)"><polygon fill="none" points="140.3137,292.8869,150.3137,282.8869,535.3137,282.8869,535.3137,700.6269,525.3137,710.6269,140.3137,710.6269,140.3137,292.8869" style="stroke:#696969;stroke-width:1;"/><line style="stroke:#696969;stroke-width:1;" x1="525.3137" x2="535.3137" y1="292.8869" y2="282.8869"/><line style="stroke:#696969;stroke-width:1;" x1="140.3137" x2="525.3137" y1="292.8869" y2="292.8869"/><line style="stroke:#696969;stroke-width:1;" x1="525.3137" x2="525.3137" y1="292.8869" y2="710.6269"/><text fill="#000000" font-family="sans-serif" font-size="14" font-weight="bold" lengthAdjust="spacing" textLength="274.6475" x="196.49" y="308.882">Middleware Server (for WhatsApp)</text></g><!--cluster Node.js Server--><g class="cluster" data-entity="Node.js Server" data-source-line="20" data-uid="ent0013" id="cluster_Node.js Server"><polygon fill="none" points="164.3137,340.8869,174.3137,330.8869,511.3137,330.8869,511.3137,676.6269,501.3137,686.6269,164.3137,686.6269,164.3137,340.8869" style="stroke:#696969;stroke-width:1;"/><line style="stroke:#696969;stroke-width:1;" x1="501.3137" x2="511.3137" y1="340.8869" y2="330.8869"/><line style="stroke:#696969;stroke-width:1;" x1="164.3137" x2="501.3137" y1="340.8869" y2="340.8869"/><line style="stroke:#696969;stroke-width:1;" x1="501.3137" x2="501.3137" y1="340.8869" y2="686.6269"/><text fill="#000000" font-family="sans-serif" font-size="14" font-weight="bold" lengthAdjust="spacing" textLength="116.1836" x="275.7219" y="356.882">Node.js Server</text></g><!--cluster Main AI Backend--><g class="cluster" data-entity="Main AI Backend" data-source-line="27" data-uid="ent0017" id="cluster_Main AI Backend"><polygon fill="none" points="741.3137,474.1869,751.3137,464.1869,1687.3137,464.1869,1687.3137,893.9269,1677.3137,903.9269,741.3137,903.9269,741.3137,474.1869" style="stroke:#696969;stroke-width:1;"/><line style="stroke:#696969;stroke-width:1;" x1="1677.3137" x2="1687.3137" y1="474.1869" y2="464.1869"/><line style="stroke:#696969;stroke-width:1;" x1="741.3137" x2="1677.3137" y1="474.1869" y2="474.1869"/><line style="stroke:#696969;stroke-width:1;" x1="1677.3137" x2="1677.3137" y1="474.1869" y2="903.9269"/><text fill="#000000" font-family="sans-serif" font-size="14" font-weight="bold" lengthAdjust="spacing" textLength="131.1475" x="1144.74" y="490.182">Main AI Backend</text></g><!--cluster Python Server (FastAPI)--><g class="cluster" data-entity="Python Server (FastAPI)" data-source-line="28" data-uid="ent0018" id="cluster_Python Server (FastAPI)"><polygon fill="none" points="765.3137,522.1869,775.3137,512.1869,1663.3137,512.1869,1663.3137,869.9269,1653.3137,879.9269,765.3137,879.9269,765.3137,522.1869" style="stroke:#696969;stroke-width:1;"/><line style="stroke:#696969;stroke-width:1;" x1="1653.3137" x2="1663.3137" y1="522.1869" y2="512.1869"/><line style="stroke:#696969;stroke-width:1;" x1="765.3137" x2="1653.3137" y1="522.1869" y2="522.1869"/><line style="stroke:#696969;stroke-width:1;" x1="1653.3137" x2="1653.3137" y1="522.1869" y2="879.9269"/><text fill="#000000" font-family="sans-serif" font-size="14" font-weight="bold" lengthAdjust="spacing" textLength="190.5244" x="1115.0515" y="538.182">Python Server (FastAPI)</text></g><!--cluster AI Core--><g class="cluster" data-entity="AI Core" data-source-line="32" data-uid="ent0021" id="cluster_AI Core"><polygon fill="none" points="1203.3137,578.1869,1213.3137,568.1869,1631.3137,568.1869,1631.3137,676.4769,1621.3137,686.4769,1203.3137,686.4769,1203.3137,578.1869" style="stroke:#696969;stroke-width:1;"/><line style="stroke:#696969;stroke-width:1;" x1="1621.3137" x2="1631.3137" y1="578.1869" y2="568.1869"/><line style="stroke:#696969;stroke-width:1;" x1="1203.3137" x2="1621.3137" y1="578.1869" y2="578.1869"/><line style="stroke:#696969;stroke-width:1;" x1="1621.3137" x2="1621.3137" y1="578.1869" y2="686.4769"/><text fill="#000000" font-family="sans-serif" font-size="14" font-weight="bold" lengthAdjust="spacing" textLength="57.21" x="1384.7087" y="594.182">AI Core</text></g><!--cluster Character Data Storage--><g class="cluster" data-entity="Character Data Storage" data-source-line="37" data-uid="ent0024" id="cluster_Character Data Storage"><path d="M1209.3137,753.6269 C1209.3137,743.6269 1393.8137,743.6269 1393.8137,743.6269 C1393.8137,743.6269 1578.3137,743.6269 1578.3137,753.6269 L1578.3137,845.9269 C1578.3137,855.9269 1393.8137,855.9269 1393.8137,855.9269 C1393.8137,855.9269 1209.3137,855.9269 1209.3137,845.9269 L1209.3137,753.6269" fill="#00FFFF" style="stroke:#454645;stroke-width:1;"/><path d="M1209.3137,753.6269 C1209.3137,763.6269 1393.8137,763.6269 1393.8137,763.6269 C1393.8137,763.6269 1578.3137,763.6269 1578.3137,753.6269" fill="none" style="stroke:#454645;stroke-width:1;"/><text fill="#454645" font-family="sans-serif" font-size="14" font-weight="bold" lengthAdjust="spacing" textLength="186.6484" x="1300.4895" y="778.622">Character Data Storage</text></g><!--entity Telegram API--><g class="entity" data-entity="Telegram API" data-source-line="5" data-uid="ent0003" id="entity_Telegram API"><rect fill="#F1F1F1" height="46.2969" rx="3.5" ry="3.5" style="stroke:#181818;stroke-width:0.5;" width="133.126" x="211.7537" y="793.6269"/><rect fill="#F1F1F1" height="10" style="stroke:#181818;stroke-width:0.5;" width="15" x="324.8797" y="798.6269"/><rect fill="#F1F1F1" height="2" style="stroke:#181818;stroke-width:0.5;" width="4" x="322.8797" y="800.6269"/><rect fill="#F1F1F1" height="2" style="stroke:#181818;stroke-width:0.5;" width="4" x="322.8797" y="804.6269"/><text fill="#000000" font-family="sans-serif" font-size="14" lengthAdjust="spacing" textLength="93.126" x="226.7537" y="826.622">Telegram API</text></g><!--entity WhatsApp Web--><g class="entity" data-entity="WhatsApp Web" data-source-line="6" data-uid="ent0004" id="entity_WhatsApp Web"><rect fill="#F1F1F1" height="46.2969" rx="3.5" ry="3.5" style="stroke:#181818;stroke-width:0.5;" width="147.2217" x="29.7037" y="793.6269"/><rect fill="#F1F1F1" height="10" style="stroke:#181818;stroke-width:0.5;" width="15" x="156.9254" y="798.6269"/><rect fill="#F1F1F1" height="2" style="stroke:#181818;stroke-width:0.5;" width="4" x="154.9254" y="800.6269"/><rect fill="#F1F1F1" height="2" style="stroke:#181818;stroke-width:0.5;" width="4" x="154.9254" y="804.6269"/><text fill="#000000" font-family="sans-serif" font-size="14" lengthAdjust="spacing" textLength="107.2217" x="44.7037" y="826.622">WhatsApp Web</text></g><!--entity Groq API (LLM)--><g class="entity" data-entity="Groq API (LLM)" data-source-line="7" data-uid="ent0005" id="entity_Groq API (LLM)"><rect fill="#F1F1F1" height="46.2969" rx="3.5" ry="3.5" style="stroke:#181818;stroke-width:0.5;" width="143.708" x="557.4637" y="793.6269"/><rect fill="#F1F1F1" height="10" style="stroke:#181818;stroke-width:0.5;" width="15" x="681.1717" y="798.6269"/><rect fill="#F1F1F1" height="2" style="stroke:#181818;stroke-width:0.5;" width="4" x="679.1717" y="800.6269"/><rect fill="#F1F1F1" height="2" style="stroke:#181818;stroke-width:0.5;" width="4" x="679.1717" y="804.6269"/><text fill="#000000" font-family="sans-serif" font-size="14" lengthAdjust="spacing" textLength="103.708" x="572.4637" y="826.622">Groq API (LLM)</text></g><!--entity AI/NLP Models\n(Whisper, TTS)--><g class="entity" data-entity="AI/NLP Models\n(Whisper, TTS)" data-source-line="8" data-uid="ent0006" id="entity_AI/NLP Models\n(Whisper, TTS)"><rect fill="#F1F1F1" height="62.5938" rx="3.5" ry="3.5" style="stroke:#181818;stroke-width:0.5;" width="142.9697" x="379.8337" y="785.4769"/><rect fill="#F1F1F1" height="10" style="stroke:#181818;stroke-width:0.5;" width="15" x="502.8034" y="790.4769"/><rect fill="#F1F1F1" height="2" style="stroke:#181818;stroke-width:0.5;" width="4" x="500.8034" y="792.4769"/><rect fill="#F1F1F1" height="2" style="stroke:#181818;stroke-width:0.5;" width="4" x="500.8034" y="796.4769"/><text fill="#000000" font-family="sans-serif" font-size="14" lengthAdjust="spacing" textLength="98.916" x="394.8337" y="818.472">AI/NLP Models</text><text fill="#000000" font-family="sans-serif" font-size="14" lengthAdjust="spacing" textLength="102.9697" x="394.8337" y="834.7689">(Whisper, TTS)</text></g><!--entity UI Components\n(Screens, Buttons)--><g class="entity" data-entity="UI Components\n(Screens, Buttons)" data-source-line="13" data-uid="ent0009" id="entity_UI Components\n(Screens, Buttons)"><rect fill="#F1F1F1" height="62.5938" rx="3.5" ry="3.5" style="stroke:#181818;stroke-width:0.5;" width="169.7461" x="205.4437" y="131.2969"/><rect fill="#F1F1F1" height="10" style="stroke:#181818;stroke-width:0.5;" width="15" x="355.1898" y="136.2969"/><rect fill="#F1F1F1" height="2" style="stroke:#181818;stroke-width:0.5;" width="4" x="353.1898" y="138.2969"/><rect fill="#F1F1F1" height="2" style="stroke:#181818;stroke-width:0.5;" width="4" x="353.1898" y="142.2969"/><text fill="#000000" font-family="sans-serif" font-size="14" lengthAdjust="spacing" textLength="107.3994" x="220.4437" y="164.292">UI Components</text><text fill="#000000" font-family="sans-serif" font-size="14" lengthAdjust="spacing" textLength="129.7461" x="220.4437" y="180.5889">(Screens, Buttons)</text></g><!--entity Local Storage\n(AsyncStorage)--><g class="entity" data-entity="Local Storage\n(AsyncStorage)" data-source-line="14" data-uid="ent0010" id="entity_Local Storage\n(AsyncStorage)"><rect fill="#F1F1F1" height="62.5938" rx="3.5" ry="3.5" style="stroke:#181818;stroke-width:0.5;" width="147.4268" x="410.6037" y="131.2969"/><rect fill="#F1F1F1" height="10" style="stroke:#181818;stroke-width:0.5;" width="15" x="538.0305" y="136.2969"/><rect fill="#F1F1F1" height="2" style="stroke:#181818;stroke-width:0.5;" width="4" x="536.0305" y="138.2969"/><rect fill="#F1F1F1" height="2" style="stroke:#181818;stroke-width:0.5;" width="4" x="536.0305" y="142.2969"/><text fill="#000000" font-family="sans-serif" font-size="14" lengthAdjust="spacing" textLength="95.7578" x="425.6037" y="164.292">Local Storage</text><text fill="#000000" font-family="sans-serif" font-size="14" lengthAdjust="spacing" textLength="107.4268" x="425.6037" y="180.5889">(AsyncStorage)</text></g><!--entity API Client (fetch/axios)--><g class="entity" data-entity="API Client (fetch/axios)" data-source-line="15" data-uid="ent0011" id="entity_API Client (fetch/axios)"><rect fill="#F1F1F1" height="46.2969" rx="3.5" ry="3.5" style="stroke:#181818;stroke-width:0.5;" width="199.4346" x="592.5937" y="139.4469"/><rect fill="#F1F1F1" height="10" style="stroke:#181818;stroke-width:0.5;" width="15" x="772.0283" y="144.4469"/><rect fill="#F1F1F1" height="2" style="stroke:#181818;stroke-width:0.5;" width="4" x="770.0283" y="146.4469"/><rect fill="#F1F1F1" height="2" style="stroke:#181818;stroke-width:0.5;" width="4" x="770.0283" y="150.4469"/><text fill="#000000" font-family="sans-serif" font-size="14" lengthAdjust="spacing" textLength="159.4346" x="607.5937" y="172.442">API Client (fetch/axios)</text></g><!--entity Express API--><g class="entity" data-entity="Express API" data-source-line="21" data-uid="ent0014" id="entity_Express API"><rect fill="#F1F1F1" height="46.2969" rx="3.5" ry="3.5" style="stroke:#181818;stroke-width:0.5;" width="121.5732" x="180.5237" y="370.8869"/><rect fill="#F1F1F1" height="10" style="stroke:#181818;stroke-width:0.5;" width="15" x="282.097" y="375.8869"/><rect fill="#F1F1F1" height="2" style="stroke:#181818;stroke-width:0.5;" width="4" x="280.097" y="377.8869"/><rect fill="#F1F1F1" height="2" style="stroke:#181818;stroke-width:0.5;" width="4" x="280.097" y="381.8869"/><text fill="#000000" font-family="sans-serif" font-size="14" lengthAdjust="spacing" textLength="81.5732" x="195.5237" y="403.882">Express API</text></g><!--entity Puppeteer\n(Headless Chrome)--><g class="entity" data-entity="Puppeteer\n(Headless Chrome)" data-source-line="22" data-uid="ent0015" id="entity_Puppeteer\n(Headless Chrome)"><rect fill="#F1F1F1" height="62.5938" rx="3.5" ry="3.5" style="stroke:#181818;stroke-width:0.5;" width="174.292" x="250.1637" y="608.0369"/><rect fill="#F1F1F1" height="10" style="stroke:#181818;stroke-width:0.5;" width="15" x="404.4557" y="613.0369"/><rect fill="#F1F1F1" height="2" style="stroke:#181818;stroke-width:0.5;" width="4" x="402.4557" y="615.0369"/><rect fill="#F1F1F1" height="2" style="stroke:#181818;stroke-width:0.5;" width="4" x="402.4557" y="619.0369"/><text fill="#000000" font-family="sans-serif" font-size="14" lengthAdjust="spacing" textLength="72.1738" x="265.1637" y="641.032">Puppeteer</text><text fill="#000000" font-family="sans-serif" font-size="14" lengthAdjust="spacing" textLength="134.292" x="265.1637" y="657.3289">(Headless Chrome)</text></g><!--entity whatsapp-web.js--><g class="entity" data-entity="whatsapp-web.js" data-source-line="23" data-uid="ent0016" id="entity_whatsapp-web.js"><rect fill="#F1F1F1" height="46.2969" rx="3.5" ry="3.5" style="stroke:#181818;stroke-width:0.5;" width="157.6738" x="337.4737" y="370.8869"/><rect fill="#F1F1F1" height="10" style="stroke:#181818;stroke-width:0.5;" width="15" x="475.1475" y="375.8869"/><rect fill="#F1F1F1" height="2" style="stroke:#181818;stroke-width:0.5;" width="4" x="473.1475" y="377.8869"/><rect fill="#F1F1F1" height="2" style="stroke:#181818;stroke-width:0.5;" width="4" x="473.1475" y="381.8869"/><text fill="#000000" font-family="sans-serif" font-size="14" lengthAdjust="spacing" textLength="117.6738" x="352.4737" y="403.882">whatsapp-web.js</text></g><!--entity FastAPI Endpoints\n(/chat, /call, /telegram/*)--><g class="entity" data-entity="FastAPI Endpoints\n(/chat, /call, /telegram/*)" data-source-line="29" data-uid="ent0019" id="entity_FastAPI Endpoints\n(/chat, /call, /telegram/*)"><rect fill="#F1F1F1" height="62.5938" rx="3.5" ry="3.5" style="stroke:#181818;stroke-width:0.5;" width="212.751" x="962.9337" y="608.0369"/><rect fill="#F1F1F1" height="10" style="stroke:#181818;stroke-width:0.5;" width="15" x="1155.6847" y="613.0369"/><rect fill="#F1F1F1" height="2" style="stroke:#181818;stroke-width:0.5;" width="4" x="1153.6847" y="615.0369"/><rect fill="#F1F1F1" height="2" style="stroke:#181818;stroke-width:0.5;" width="4" x="1153.6847" y="619.0369"/><text fill="#000000" font-family="sans-serif" font-size="14" lengthAdjust="spacing" textLength="125.6172" x="977.9337" y="641.032">FastAPI Endpoints</text><text fill="#000000" font-family="sans-serif" font-size="14" lengthAdjust="spacing" textLength="172.751" x="977.9337" y="657.3289">(/chat, /call, /telegram/*)</text></g><!--entity Telethon Client--><g class="entity" data-entity="Telethon Client" data-source-line="30" data-uid="ent0020" id="entity_Telethon Client"><rect fill="#F1F1F1" height="46.2969" rx="3.5" ry="3.5" style="stroke:#181818;stroke-width:0.5;" width="146.4492" x="781.0937" y="616.1869"/><rect fill="#F1F1F1" height="10" style="stroke:#181818;stroke-width:0.5;" width="15" x="907.5429" y="621.1869"/><rect fill="#F1F1F1" height="2" style="stroke:#181818;stroke-width:0.5;" width="4" x="905.5429" y="623.1869"/><rect fill="#F1F1F1" height="2" style="stroke:#181818;stroke-width:0.5;" width="4" x="905.5429" y="627.1869"/><text fill="#000000" font-family="sans-serif" font-size="14" lengthAdjust="spacing" textLength="106.4492" x="796.0937" y="649.182">Telethon Client</text></g><!--entity RAG Pipeline--><g class="entity" data-entity="RAG Pipeline" data-source-line="33" data-uid="ent0022" id="entity_RAG Pipeline"><rect fill="#F1F1F1" height="46.2969" rx="3.5" ry="3.5" style="stroke:#181818;stroke-width:0.5;" width="129.7012" x="1246.4637" y="616.1869"/><rect fill="#F1F1F1" height="10" style="stroke:#181818;stroke-width:0.5;" width="15" x="1356.1649" y="621.1869"/><rect fill="#F1F1F1" height="2" style="stroke:#181818;stroke-width:0.5;" width="4" x="1354.1649" y="623.1869"/><rect fill="#F1F1F1" height="2" style="stroke:#181818;stroke-width:0.5;" width="4" x="1354.1649" y="627.1869"/><text fill="#000000" font-family="sans-serif" font-size="14" lengthAdjust="spacing" textLength="89.7012" x="1261.4637" y="649.182">RAG Pipeline</text></g><!--entity Sentence Transformer--><g class="entity" data-entity="Sentence Transformer" data-source-line="34" data-uid="ent0023" id="entity_Sentence Transformer"><rect fill="#F1F1F1" height="46.2969" rx="3.5" ry="3.5" style="stroke:#181818;stroke-width:0.5;" width="196.4199" x="1411.1037" y="616.1869"/><rect fill="#F1F1F1" height="10" style="stroke:#181818;stroke-width:0.5;" width="15" x="1587.5236" y="621.1869"/><rect fill="#F1F1F1" height="2" style="stroke:#181818;stroke-width:0.5;" width="4" x="1585.5236" y="623.1869"/><rect fill="#F1F1F1" height="2" style="stroke:#181818;stroke-width:0.5;" width="4" x="1585.5236" y="627.1869"/><text fill="#000000" font-family="sans-serif" font-size="14" lengthAdjust="spacing" textLength="156.4199" x="1426.1037" y="649.182">Sentence Transformer</text></g><!--entity FAISS Vector Store--><g class="entity" data-entity="FAISS Vector Store" data-source-line="38" data-uid="ent0025" id="entity_FAISS Vector Store"><rect fill="#F1F1F1" height="46.2969" rx="3.5" ry="3.5" style="stroke:#181818;stroke-width:0.5;" width="171.4414" x="1225.5937" y="793.6269"/><rect fill="#F1F1F1" height="10" style="stroke:#181818;stroke-width:0.5;" width="15" x="1377.0351" y="798.6269"/><rect fill="#F1F1F1" height="2" style="stroke:#181818;stroke-width:0.5;" width="4" x="1375.0351" y="800.6269"/><rect fill="#F1F1F1" height="2" style="stroke:#181818;stroke-width:0.5;" width="4" x="1375.0351" y="804.6269"/><text fill="#000000" font-family="sans-serif" font-size="14" lengthAdjust="spacing" textLength="131.4414" x="1240.5937" y="826.622">FAISS Vector Store</text></g><!--entity JSON Profiles--><g class="entity" data-entity="JSON Profiles" data-source-line="39" data-uid="ent0026" id="entity_JSON Profiles"><rect fill="#F1F1F1" height="46.2969" rx="3.5" ry="3.5" style="stroke:#181818;stroke-width:0.5;" width="130.3369" x="1432.1437" y="793.6269"/><rect fill="#F1F1F1" height="10" style="stroke:#181818;stroke-width:0.5;" width="15" x="1542.4806" y="798.6269"/><rect fill="#F1F1F1" height="2" style="stroke:#181818;stroke-width:0.5;" width="4" x="1540.4806" y="800.6269"/><rect fill="#F1F1F1" height="2" style="stroke:#181818;stroke-width:0.5;" width="4" x="1540.4806" y="804.6269"/><text fill="#000000" font-family="sans-serif" font-size="14" lengthAdjust="spacing" textLength="90.3369" x="1447.1437" y="826.622">JSON Profiles</text></g><!--link API Client (fetch/axios) to Express API--><g class="link" data-entity-1="API Client (fetch/axios)" data-entity-2="Express API" data-source-line="45" data-uid="lnk27" id="link_API Client (fetch/axios)_Express API"><path d="M666.4037,186.1169 C643.9037,204.3369 609.6337,228.9969 575.3137,241.8869 C468.3337,282.0669 417.4337,214.6669 320.3137,274.8869 C284.2437,297.2569 263.2761,337.3521 251.8861,364.9021" fill="none" id="API Client (fetch/axios)-to-Express API" style="stroke:#454645;stroke-width:1;"/><polygon fill="#454645" points="249.5937,370.4469,256.7288,363.6579,251.504,365.8262,249.3358,360.6014,249.5937,370.4469" style="stroke:#454645;stroke-width:1;"/><text fill="#000000" font-family="sans-serif" font-size="13" lengthAdjust="spacing" textLength="147.9067" x="545.3137" y="262.9538">HTTP (WhatsApp Flow)</text></g><!--link API Client (fetch/axios) to FastAPI Endpoints\n(/chat, /call, /telegram/*)--><g class="link" data-entity-1="API Client (fetch/axios)" data-entity-2="FastAPI Endpoints\n(/chat, /call, /telegram/*)" data-source-line="46" data-uid="lnk28" id="link_API Client (fetch/axios)_FastAPI Endpoints\n(/chat, /call, /telegram/*)"><path d="M713.2437,185.9669 C757.7937,233.9769 864.4837,351.0269 945.3137,456.1869 C984.8337,507.5969 1023.1395,565.7232 1046.7095,602.5532" fill="none" id="API Client (fetch/axios)-to-FastAPI Endpoints\n(/chat, /call, /telegram/*)" style="stroke:#454645;stroke-width:1;"/><polygon fill="#454645" points="1049.9437,607.6069,1048.4615,597.8702,1047.2485,603.3955,1041.7233,602.1825,1049.9437,607.6069" style="stroke:#454645;stroke-width:1;"/><text fill="#000000" font-family="sans-serif" font-size="13" lengthAdjust="spacing" textLength="125.2646" x="915.3137" y="398.6038">HTTP (Other Flows)</text></g><!--link whatsapp-web.js to Puppeteer\n(Headless Chrome)--><g class="link" data-entity-1="whatsapp-web.js" data-entity-2="Puppeteer\n(Headless Chrome)" data-source-line="48" data-uid="lnk29" id="link_whatsapp-web.js_Puppeteer\n(Headless Chrome)"><path d="M409.0237,417.4869 C394.8137,461.2469 365.2458,552.2999 349.1358,601.9399" fill="none" id="whatsapp-web.js-to-Puppeteer\n(Headless Chrome)" style="stroke:#454645;stroke-width:1;"/><polygon fill="#454645" points="347.2837,607.6469,353.8666,600.3212,348.8271,602.8911,346.2572,597.8517,347.2837,607.6469" style="stroke:#454645;stroke-width:1;"/></g><!--link Puppeteer\n(Headless Chrome) to WhatsApp Web--><g class="link" data-entity-1="Puppeteer\n(Headless Chrome)" data-entity-2="WhatsApp Web" data-source-line="49" data-uid="lnk30" id="link_Puppeteer\n(Headless Chrome)_WhatsApp Web"><path d="M287.8637,670.9569 C259.7937,688.9169 224.3637,712.5469 194.3137,735.6269 C170.4337,753.9669 149.2475,772.7518 131.2975,789.3618" fill="none" id="Puppeteer\n(Headless Chrome)-to-WhatsApp Web" style="stroke:#454645;stroke-width:1;"/><polygon fill="#454645" points="126.8937,793.4369,136.2162,790.2601,130.5636,790.041,130.7827,784.3884,126.8937,793.4369" style="stroke:#454645;stroke-width:1;"/></g><!--link Telethon Client to Telegram API--><g class="link" data-entity-1="Telethon Client" data-entity-2="Telegram API" data-source-line="51" data-uid="lnk31" id="link_Telethon Client_Telegram API"><path d="M780.8537,659.5869 C711.7237,677.1169 605.0937,702.6269 511.3137,718.6269 C445.6137,729.8369 422.6837,707.3769 362.3137,735.6269 C334.5637,748.6169 313.9287,769.7732 298.6787,788.6132" fill="none" id="Telethon Client-to-Telegram API" style="stroke:#454645;stroke-width:1;"/><polygon fill="#454645" points="294.9037,793.2769,303.6753,788.7981,298.0495,789.3905,297.4571,783.7648,294.9037,793.2769" style="stroke:#454645;stroke-width:1;"/></g><!--link RAG Pipeline to Groq API (LLM)--><g class="link" data-entity-1="RAG Pipeline" data-entity-2="Groq API (LLM)" data-source-line="52" data-uid="lnk32" id="link_RAG Pipeline_Groq API (LLM)"><path d="M1297.8737,662.7569 C1285.7237,680.9069 1266.1237,705.5369 1242.3137,718.6269 C1150.2537,769.2569 848.7544,798.6461 707.4444,810.0061" fill="none" id="RAG Pipeline-to-Groq API (LLM)" style="stroke:#454645;stroke-width:1;"/><polygon fill="#454645" points="701.4637,810.4869,710.7553,813.7528,706.4476,810.0862,710.1142,805.7785,701.4637,810.4869" style="stroke:#454645;stroke-width:1;"/></g><!--link AI Core to AI/NLP Models\n(Whisper, TTS)--><g class="link" data-entity-1="AI Core" data-entity-2="AI/NLP Models\n(Whisper, TTS)" data-source-line="53" data-uid="lnk33" id="link_AI Core_AI/NLP Models\n(Whisper, TTS)"><path d="M1219.4734,686.763 C1219.4625,687.0266 1219.4503,687.29 1219.4367,687.5534 C1219.3825,688.6068 1219.3066,689.6585 1219.2072,690.7063 C1219.0083,692.8019 1218.7154,694.8815 1218.3136,696.9267 C1216.7062,705.1075 1213.3562,712.7369 1207.3137,718.6269 C1180.7737,744.5069 574.7437,721.9069 540.3137,735.6269 C514.6237,745.8669 495.6112,762.6415 479.4212,780.6815" fill="none" id="AI Core-to-AI/NLP Models\n(Whisper, TTS)" style="stroke:#454645;stroke-width:1;"/><polygon fill="#454645" points="475.4137,785.1469,484.4019,781.1204,478.7533,781.4257,478.448,775.7771,475.4137,785.1469" style="stroke:#454645;stroke-width:1;"/></g><!--link RAG Pipeline to FAISS Vector Store--><g class="link" data-entity-1="RAG Pipeline" data-entity-2="FAISS Vector Store" data-source-line="54" data-uid="lnk34" id="link_RAG Pipeline_FAISS Vector Store"><path d="M1311.3137,662.9069 C1311.3137,696.5969 1311.3137,753.6469 1311.3137,787.2869" fill="none" id="RAG Pipeline-to-FAISS Vector Store" style="stroke:#454645;stroke-width:1;"/><polygon fill="#454645" points="1311.3137,793.2869,1315.3137,784.2869,1311.3137,788.2869,1307.3137,784.2869,1311.3137,793.2869" style="stroke:#454645;stroke-width:1;"/></g><!--SRC=[bLHDSzem4BtxLsnz2NIWt7leZ4CWeGF44plbqekGDx5Q8xcI-9fE_djN69lOO3BbO2plq-vRlQVzP5DS8Mp4KZDfFIjiXX1CO2QqLXhw4EsDnHK4cgV28hThZPx7CxLEm1_jB6h9CeXGRmH7uyDV3-Z7rIfN4gK5FyOCNpMZ3E74RmONARCco7DOuF8iUA_L7xSBEjFfh7iM3YQ3-JI4cKemCpzbPv4AawFkGHn7X7xpF4aXy9yDwXi3T-WObWIBq4mjXMkN27IUa74BSsR51hibh57oUGB3SkLAHbmZIjE3sxMrIfeZoSQkgUBkYApIx1LfLs3saX-NbtUufeUPSE-T5xGy7R2TK6NwjrDlCv4a6MwPneC4g0bFgfN7sgstEwVdbr_c26tfSRJBDHfpagiH3zTvZXPHKoSFoAWyWOUfLgkMPhQE3Clp_XQNLFsy1oQaSzmjuxzH9dNAuTwcIbRDZPcnHAnDdsCOHZB9bIWq6d2gtuC1QP3HdptQSV3vCbjdrqF9ulnzhm8LX09d0Otl2JGoF0Nt48eSCo7HRmD5z4J94MAwTeOqMv4W5VZjL3LXbYsPeSh3b6coA1t37Nqh_NI5o3YOH17ye3jBbd3mTZhVeySvX5gzq7KmxtbKMjr0lz-drgMaV8AyxjPUkrCf_Ark9lWA3t4SGgUwzEDCRRiVvlXFKQioZpJPzA66wNhUcGsBvDVTV3rSPAYFCE_CG0MgFWNh7YaGpMbtSjeX_C6qkvJnWlx_0000]--></g></svg>