<svg xmlns="http://www.w3.org/2000/svg" xmlns:xlink="http://www.w3.org/1999/xlink" contentStyleType="text/css" data-diagram-type="DESCRIPTION" height="290px" preserveAspectRatio="none" style="width:884px;height:290px;background:#FFFFFF;" version="1.1" viewBox="0 0 884 290" width="884px" zoomAndPan="magnify"><defs/><g><!--cluster AI Mirror System--><g class="cluster" data-entity="AI Mirror System" data-source-line="6" data-uid="ent0003" id="cluster_AI Mirror System"><rect fill="none" height="277" rx="3.5" ry="3.5" style="stroke:#696969;stroke-width:1;" width="793.86" x="84.91" y="7"/><text fill="#000000" font-family="sans-serif" font-size="14" font-weight="bold" lengthAdjust="spacing" textLength="133.1709" x="415.2546" y="21.9951">AI Mirror System</text></g><!--entity UC1--><g class="entity" data-entity="UC1" data-source-line="7" data-uid="ent0004" id="entity_UC1"><ellipse cx="221.3326" cy="67.0045" fill="#F1F1F1" rx="113.2726" ry="25.0545" style="stroke:#181818;stroke-width:0.5;"/><text fill="#000000" font-family="sans-serif" font-size="14" lengthAdjust="spacing" textLength="174.8975" x="133.8838" y="66.366">Create Persona Manually</text><text fill="#000000" font-family="sans-serif" font-size="14" lengthAdjust="spacing" textLength="109.252" x="166.7066" y="82.6628">(Questionnaire)</text></g><!--entity UC2--><g class="entity" data-entity="UC2" data-source-line="8" data-uid="ent0005" id="entity_UC2"><ellipse cx="221.3318" cy="154.0044" fill="#F1F1F1" rx="120.4218" ry="26.4844" style="stroke:#181818;stroke-width:0.5;"/><text fill="#000000" font-family="sans-serif" font-size="14" lengthAdjust="spacing" textLength="220.2539" x="111.2048" y="158.6528">Import Persona from WhatsApp</text></g><!--entity UC3--><g class="entity" data-entity="UC3" data-source-line="9" data-uid="ent0006" id="entity_UC3"><ellipse cx="221.3265" cy="241.9953" fill="#F1F1F1" rx="118.1265" ry="26.0253" style="stroke:#181818;stroke-width:0.5;"/><text fill="#000000" font-family="sans-serif" font-size="14" lengthAdjust="spacing" textLength="215.3525" x="113.6502" y="246.6437">Import Persona from Telegram</text></g><!--entity UC_Interact--><g class="entity" data-entity="UC_Interact" data-source-line="11" data-uid="ent0007" id="entity_UC_Interact"><ellipse cx="554.817" cy="154.0034" fill="#F1F1F1" rx="88.067" ry="20.0134" style="stroke:#181818;stroke-width:0.5;"/><text fill="#000000" font-family="sans-serif" font-size="14" lengthAdjust="spacing" textLength="149.3516" x="480.1412" y="158.6518">Interact with Persona</text></g><!--entity UC4--><g class="entity" data-entity="UC4" data-source-line="13" data-uid="ent0008" id="entity_UC4"><ellipse cx="783.3306" cy="222.9981" fill="#F1F1F1" rx="64.9406" ry="15.3881" style="stroke:#181818;stroke-width:0.5;"/><text fill="#000000" font-family="sans-serif" font-size="14" lengthAdjust="spacing" textLength="93.3105" x="736.6753" y="227.6466">via Text Chat</text></g><!--entity UC5--><g class="entity" data-entity="UC5" data-source-line="14" data-uid="ent0009" id="entity_UC5"><ellipse cx="783.3308" cy="153.9982" fill="#F1F1F1" rx="79.4408" ry="18.2882" style="stroke:#181818;stroke-width:0.5;"/><text fill="#000000" font-family="sans-serif" font-size="14" lengthAdjust="spacing" textLength="129.3564" x="718.6526" y="158.6466">via Voice Message</text></g><!--entity UC6--><g class="entity" data-entity="UC6" data-source-line="15" data-uid="ent0010" id="entity_UC6"><ellipse cx="783.3301" cy="85" fill="#F1F1F1" rx="65.2501" ry="15.45" style="stroke:#181818;stroke-width:0.5;"/><text fill="#000000" font-family="sans-serif" font-size="14" lengthAdjust="spacing" textLength="94.1309" x="736.2647" y="89.6485">via Voice Call</text></g><!--entity User--><g class="entity" data-entity="User" data-source-line="4" data-uid="ent0002" id="entity_User"><ellipse cx="21.9551" cy="124.35" fill="#454645" rx="8" ry="8" style="stroke:#454645;stroke-width:0.5;"/><path d="M21.9551,132.35 L21.9551,159.35 M8.9551,140.35 L34.9551,140.35 M21.9551,159.35 L8.9551,174.35 M21.9551,159.35 L34.9551,174.35" fill="none" style="stroke:#454645;stroke-width:0.5;"/><text fill="#454645" font-family="sans-serif" font-size="14" lengthAdjust="spacing" textLength="31.9102" x="6" y="188.8451">User</text></g><!--link User to UC1--><g class="link" data-entity-1="User" data-entity-2="UC1" data-source-line="18" data-uid="lnk11" id="link_User_UC1"><path d="M38.29,138.72 C48.49,129.29 62.6,117.59 76.91,110 C96.66,99.52 113.581,92.9474 134.971,86.5574" fill="none" id="User-to-UC1" style="stroke:#454645;stroke-width:1;"/><polygon fill="#454645" points="140.72,84.84,130.9516,83.5835,135.9292,86.2712,133.2415,91.2488,140.72,84.84" style="stroke:#454645;stroke-width:1;"/></g><!--link User to UC2--><g class="link" data-entity-1="User" data-entity-2="UC2" data-source-line="19" data-uid="lnk12" id="link_User_UC2"><path d="M38.12,154 C52.56,154 69.77,154 94.86,154" fill="none" id="User-to-UC2" style="stroke:#454645;stroke-width:1;"/><polygon fill="#454645" points="100.86,154,91.86,150,95.86,154,91.86,158,100.86,154" style="stroke:#454645;stroke-width:1;"/></g><!--link User to UC3--><g class="link" data-entity-1="User" data-entity-2="UC3" data-source-line="20" data-uid="lnk13" id="link_User_UC3"><path d="M38.3,169.25 C48.51,178.67 62.63,190.36 76.91,198 C96.09,208.25 112.2882,214.726 133.1282,221.176" fill="none" id="User-to-UC3" style="stroke:#454645;stroke-width:1;"/><polygon fill="#454645" points="138.86,222.95,131.445,216.4679,134.0835,221.4717,129.0797,224.1102,138.86,222.95" style="stroke:#454645;stroke-width:1;"/></g><!--link UC1 to UC_Interact--><g class="link" data-entity-1="UC1" data-entity-2="UC_Interact" data-source-line="22" data-uid="lnk14" id="link_UC1_UC_Interact"><path d="M295.49,86.2 C355.74,102.01 434.2166,122.6067 489.9166,137.2267" fill="none" id="UC1-to-UC_Interact" style="stroke:#454645;stroke-width:1;stroke-dasharray:7.0,7.0;"/><polygon fill="#454645" points="495.72,138.75,488.0304,132.5962,490.8838,137.4806,485.9994,140.334,495.72,138.75" style="stroke:#454645;stroke-width:1;"/><text fill="#000000" font-family="sans-serif" font-size="13" lengthAdjust="spacing" textLength="63.0068" x="372.75" y="104.0669">&#171;include&#187;</text></g><!--link UC2 to UC_Interact--><g class="link" data-entity-1="UC2" data-entity-2="UC_Interact" data-source-line="23" data-uid="lnk15" id="link_UC2_UC_Interact"><path d="M342.01,154 C383.08,154 422.26,154 460.31,154" fill="none" id="UC2-to-UC_Interact" style="stroke:#454645;stroke-width:1;stroke-dasharray:7.0,7.0;"/><polygon fill="#454645" points="466.31,154,457.31,150,461.31,154,457.31,158,466.31,154" style="stroke:#454645;stroke-width:1;"/><text fill="#000000" font-family="sans-serif" font-size="13" lengthAdjust="spacing" textLength="63.0068" x="372.75" y="150.0669">&#171;include&#187;</text></g><!--link UC3 to UC_Interact--><g class="link" data-entity-1="UC3" data-entity-2="UC_Interact" data-source-line="24" data-uid="lnk16" id="link_UC3_UC_Interact"><path d="M297.97,221.92 C358.16,205.94 435.331,185.46 490.271,170.87" fill="none" id="UC3-to-UC_Interact" style="stroke:#454645;stroke-width:1;stroke-dasharray:7.0,7.0;"/><polygon fill="#454645" points="496.07,169.33,486.3448,167.774,491.2375,170.6133,488.3982,175.506,496.07,169.33" style="stroke:#454645;stroke-width:1;"/><text fill="#000000" font-family="sans-serif" font-size="13" lengthAdjust="spacing" textLength="63.0068" x="372.75" y="184.0669">&#171;include&#187;</text></g><!--reverse link UC_Interact to UC4--><g class="link" data-entity-1="UC_Interact" data-entity-2="UC4" data-source-line="26" data-uid="lnk17" id="link_UC_Interact_UC4"><path d="M626.1483,175.4268 C666.8083,187.8168 704.83,199.39 741.94,210.7" fill="none" id="UC_Interact-backto-UC4" style="stroke:#454645;stroke-width:1;"/><polygon fill="none" points="608.93,170.18,624.3994,181.1663,627.8973,169.6874,608.93,170.18" style="stroke:#454645;stroke-width:1;"/></g><!--reverse link UC_Interact to UC5--><g class="link" data-entity-1="UC_Interact" data-entity-2="UC5" data-source-line="27" data-uid="lnk18" id="link_UC_Interact_UC5"><path d="M661.07,154 C681.01,154 684.09,154 703.64,154" fill="none" id="UC_Interact-backto-UC5" style="stroke:#454645;stroke-width:1;"/><polygon fill="none" points="643.07,154,661.07,160,661.07,148,643.07,154" style="stroke:#454645;stroke-width:1;"/></g><!--reverse link UC_Interact to UC6--><g class="link" data-entity-1="UC_Interact" data-entity-2="UC6" data-source-line="28" data-uid="lnk19" id="link_UC_Interact_UC6"><path d="M626.1483,132.5732 C666.8083,120.1832 704.83,108.61 741.94,97.3" fill="none" id="UC_Interact-backto-UC6" style="stroke:#454645;stroke-width:1;"/><polygon fill="none" points="608.93,137.82,627.8973,138.3126,624.3994,126.8337,608.93,137.82" style="stroke:#454645;stroke-width:1;"/></g><!--SRC=[ZP1FIyD04CNl-od6dDf32YQs1mc1abCF0KMh5q76T9ei9BjXTb8jwdTtKrA9fL2FyzxlpRyhgQWXsEatHYEgfgs0M61TLW8RpLI8jaOfBCGoh1snKhs8fgm9WkKASitihOUz4se2-5G0dQC2dRSp9XI2Es9d3KAEfiEwth-OoNr7hkziqC-O1e0ErjdrEBjgMiloczsoRU2vGd7BjXtuw1B_I3MLZCt0nvx_4p52x2-3TotLCJcmhqVp9BFJwDj-26H-bu6zEGMUh2u8Sd8EIngW-NaeymyPY8NwLgf_COHXUdZ7g8Z6HQpKnFjJcCtIyQvm2qcYJL5t6qhJded-mSIN63MsagymFDnyHfoV4nS_]--></g></svg>