<svg xmlns="http://www.w3.org/2000/svg" xmlns:xlink="http://www.w3.org/1999/xlink" contentStyleType="text/css" data-diagram-type="SEQUENCE" height="899px" preserveAspectRatio="none" style="width:1057px;height:899px;background:#FFFFFF;" version="1.1" viewBox="0 0 1057 899" width="1057px" zoomAndPan="magnify"><title>Sequence Diagram: WhatsApp Persona Import</title><defs/><g><text fill="#000000" font-family="sans-serif" font-size="14" font-weight="bold" lengthAdjust="spacing" textLength="366.5635" x="346.9399" y="27.9951">Sequence Diagram: WhatsApp Persona Import</text><g><title>Node.js Server</title><rect fill="#FFFFFF" height="93.3984" style="stroke:#696969;stroke-width:1;" width="10" x="587.8633" y="202.9922"/></g><g><title>Node.js Server</title><rect fill="#FFFFFF" height="71.2656" style="stroke:#696969;stroke-width:1;" width="10" x="587.8633" y="511.3203"/></g><g><title>Python Server (FastAPI)</title><rect fill="#FFFFFF" height="79.3984" style="stroke:#696969;stroke-width:1;" width="10" x="848.9834" y="611.7188"/></g><rect fill="none" height="323.4609" rx="3.5" ry="3.5" style="stroke:#696969;stroke-width:1;" width="843.9834" x="10" y="135.5938"/><rect fill="none" height="46.2656" rx="3.5" ry="3.5" style="stroke:#696969;stroke-width:1;" width="457.1904" x="203.939" y="318.3906"/><rect fill="none" height="226.0625" rx="3.5" ry="3.5" style="stroke:#696969;stroke-width:1;" width="847.5044" x="203.939" y="473.0547"/><rect fill="none" height="88.3984" rx="3.5" ry="3.5" style="stroke:#696969;stroke-width:1;" width="509.355" x="10" y="713.1172"/><g><title>User</title><rect fill="#000000" fill-opacity="0.00000" height="699.9219" width="8" x="34.9551" y="118.5938"/><line style="stroke:#696969;stroke-width:0.5;stroke-dasharray:5.0,5.0;" x1="38" x2="38" y1="118.5938" y2="818.5156"/></g><g><title>App (React Native)</title><rect fill="#000000" fill-opacity="0.00000" height="699.9219" width="8" x="283.2441" y="118.5938"/><line style="stroke:#696969;stroke-width:0.5;stroke-dasharray:5.0,5.0;" x1="286.939" x2="286.939" y1="118.5938" y2="818.5156"/></g><g><title>Node.js Server</title><rect fill="#000000" fill-opacity="0.00000" height="699.9219" width="8" x="588.8633" y="118.5938"/><line style="stroke:#696969;stroke-width:0.5;stroke-dasharray:5.0,5.0;" x1="592.5972" x2="592.5972" y1="118.5938" y2="818.5156"/></g><g><title>Python Server (FastAPI)</title><rect fill="#000000" fill-opacity="0.00000" height="699.9219" width="8" x="849.9834" y="118.5938"/><line style="stroke:#696969;stroke-width:0.5;stroke-dasharray:5.0,5.0;" x1="853.0703" x2="853.0703" y1="118.5938" y2="818.5156"/></g><g class="participant participant-head" data-participant="User"><text fill="#454645" font-family="sans-serif" font-size="14" lengthAdjust="spacing" textLength="31.9102" x="20" y="115.292">User</text><ellipse cx="38.9551" cy="50.7969" fill="#454645" rx="8" ry="8" style="stroke:#454645;stroke-width:0.5;"/><path d="M38.9551,58.7969 L38.9551,85.7969 M25.9551,66.7969 L51.9551,66.7969 M38.9551,85.7969 L25.9551,100.7969 M38.9551,85.7969 L51.9551,100.7969" fill="none" style="stroke:#454645;stroke-width:0.5;"/></g><g class="participant participant-tail" data-participant="User"><text fill="#454645" font-family="sans-serif" font-size="14" lengthAdjust="spacing" textLength="31.9102" x="20" y="830.5107">User</text><ellipse cx="38.9551" cy="842.3125" fill="#454645" rx="8" ry="8" style="stroke:#454645;stroke-width:0.5;"/><path d="M38.9551,850.3125 L38.9551,877.3125 M25.9551,858.3125 L51.9551,858.3125 M38.9551,877.3125 L25.9551,892.3125 M38.9551,877.3125 L51.9551,892.3125" fill="none" style="stroke:#454645;stroke-width:0.5;"/></g><g class="participant participant-head" data-participant="App"><rect fill="#FF6347" height="30.2969" rx="3.5" ry="3.5" style="stroke:#454645;stroke-width:1.5;" width="146.6104" x="213.939" y="87.2969"/><text fill="#FFFFFF" font-family="sans-serif" font-size="14" lengthAdjust="spacing" textLength="132.6104" x="220.939" y="107.292">App (React Native)</text></g><g class="participant participant-tail" data-participant="App"><rect fill="#FF6347" height="30.2969" rx="3.5" ry="3.5" style="stroke:#454645;stroke-width:1.5;" width="146.6104" x="213.939" y="817.5156"/><text fill="#FFFFFF" font-family="sans-serif" font-size="14" lengthAdjust="spacing" textLength="132.6104" x="220.939" y="837.5107">App (React Native)</text></g><g class="participant participant-head" data-participant="NodeServer"><rect fill="#FF6347" height="30.2969" rx="3.5" ry="3.5" style="stroke:#454645;stroke-width:1.5;" width="116.5322" x="534.5972" y="87.2969"/><text fill="#FFFFFF" font-family="sans-serif" font-size="14" lengthAdjust="spacing" textLength="102.5322" x="541.5972" y="107.292">Node.js Server</text></g><g class="participant participant-tail" data-participant="NodeServer"><rect fill="#FF6347" height="30.2969" rx="3.5" ry="3.5" style="stroke:#454645;stroke-width:1.5;" width="116.5322" x="534.5972" y="817.5156"/><text fill="#FFFFFF" font-family="sans-serif" font-size="14" lengthAdjust="spacing" textLength="102.5322" x="541.5972" y="837.5107">Node.js Server</text></g><g class="participant participant-head" data-participant="PythonServer"><rect fill="#FF6347" height="30.2969" rx="3.5" ry="3.5" style="stroke:#454645;stroke-width:1.5;" width="179.8262" x="764.0703" y="87.2969"/><text fill="#FFFFFF" font-family="sans-serif" font-size="14" lengthAdjust="spacing" textLength="165.8262" x="771.0703" y="107.292">Python Server (FastAPI)</text></g><g class="participant participant-tail" data-participant="PythonServer"><rect fill="#FF6347" height="30.2969" rx="3.5" ry="3.5" style="stroke:#454645;stroke-width:1.5;" width="179.8262" x="764.0703" y="817.5156"/><text fill="#FFFFFF" font-family="sans-serif" font-size="14" lengthAdjust="spacing" textLength="165.8262" x="771.0703" y="837.5107">Python Server (FastAPI)</text></g><g><title>Node.js Server</title><rect fill="#FFFFFF" height="93.3984" style="stroke:#696969;stroke-width:1;" width="10" x="587.8633" y="202.9922"/></g><g><title>Node.js Server</title><rect fill="#FFFFFF" height="71.2656" style="stroke:#696969;stroke-width:1;" width="10" x="587.8633" y="511.3203"/></g><g><title>Python Server (FastAPI)</title><rect fill="#FFFFFF" height="79.3984" style="stroke:#696969;stroke-width:1;" width="10" x="848.9834" y="611.7188"/></g><path d="M13.5,135.5938 L314.8857,135.5938 L314.8857,142.7266 L304.8857,152.7266 L10,152.7266 L10,139.0938 A3.5,3.5 0 0 1 13.5,135.5938" fill="#EEEEEE" style="stroke:#696969;stroke-width:1.5;"/><rect fill="none" height="323.4609" rx="3.5" ry="3.5" style="stroke:#696969;stroke-width:1;" width="843.9834" x="10" y="135.5938"/><text fill="#454645" font-family="sans-serif" font-size="13" font-weight="bold" lengthAdjust="spacing" textLength="259.8857" x="25" y="148.6606">WhatsApp Linking &amp; Chat Selection</text><g class="message" data-participant-1="User" data-participant-2="App"><polygon fill="#454645" points="275.2441,169.8594,285.2441,173.8594,275.2441,177.8594,279.2441,173.8594" style="stroke:#454645;stroke-width:1;"/><line style="stroke:#454645;stroke-width:1;" x1="38.9551" x2="281.2441" y1="173.8594" y2="173.8594"/><text fill="#000000" font-family="sans-serif" font-size="13" font-weight="bold" lengthAdjust="spacing" textLength="9.0454" x="45.9551" y="168.7935">1</text><text fill="#000000" font-family="sans-serif" font-size="13" lengthAdjust="spacing" textLength="211.2437" x="59.0005" y="168.7935">Selects "Import from WhatsApp"</text></g><g class="message" data-participant-1="App" data-participant-2="NodeServer"><polygon fill="#454645" points="575.8633,198.9922,585.8633,202.9922,575.8633,206.9922,579.8633,202.9922" style="stroke:#454645;stroke-width:1;"/><line style="stroke:#454645;stroke-width:1;" x1="287.2441" x2="581.8633" y1="202.9922" y2="202.9922"/><text fill="#000000" font-family="sans-serif" font-size="13" font-weight="bold" lengthAdjust="spacing" textLength="9.0454" x="294.2441" y="197.9263">2</text><text fill="#000000" font-family="sans-serif" font-size="13" lengthAdjust="spacing" textLength="147.8433" x="307.2896" y="197.9263">GET /initiate-whatsapp</text></g><g class="message" data-participant-1="NodeServer" data-participant-2="User"><polygon fill="#454645" points="49.9551,228.125,39.9551,232.125,49.9551,236.125,45.9551,232.125" style="stroke:#454645;stroke-width:1;"/><line style="stroke:#454645;stroke-width:1;" x1="43.9551" x2="586.8633" y1="232.125" y2="232.125"/><text fill="#000000" font-family="sans-serif" font-size="13" font-weight="bold" lengthAdjust="spacing" textLength="9.0454" x="55.9551" y="227.0591">3</text><text fill="#000000" font-family="sans-serif" font-size="13" lengthAdjust="spacing" textLength="190.1504" x="69.0005" y="227.0591">Displays QR Code in terminal</text></g><g class="message" data-participant-1="User" data-participant-2="App"><polygon fill="#454645" points="275.2441,257.2578,285.2441,261.2578,275.2441,265.2578,279.2441,261.2578" style="stroke:#454645;stroke-width:1;"/><line style="stroke:#454645;stroke-width:1;" x1="38.9551" x2="281.2441" y1="261.2578" y2="261.2578"/><text fill="#000000" font-family="sans-serif" font-size="13" font-weight="bold" lengthAdjust="spacing" textLength="9.0454" x="45.9551" y="256.1919">4</text><text fill="#000000" font-family="sans-serif" font-size="13" lengthAdjust="spacing" textLength="138.3027" x="59.0005" y="256.1919">Scans QR with phone</text></g><g class="message" data-participant-1="NodeServer" data-participant-2="NodeServer"><line style="stroke:#454645;stroke-width:1;" x1="597.8633" x2="639.8633" y1="295.3906" y2="295.3906"/><line style="stroke:#454645;stroke-width:1;" x1="639.8633" x2="639.8633" y1="295.3906" y2="308.3906"/><line style="stroke:#454645;stroke-width:1;" x1="592.8633" x2="639.8633" y1="308.3906" y2="308.3906"/><polygon fill="#454645" points="602.8633,304.3906,592.8633,308.3906,602.8633,312.3906,598.8633,308.3906" style="stroke:#454645;stroke-width:1;"/><text fill="#000000" font-family="sans-serif" font-size="13" font-weight="bold" lengthAdjust="spacing" textLength="9.0454" x="604.8633" y="290.3247">5</text><text fill="#000000" font-family="sans-serif" font-size="13" lengthAdjust="spacing" textLength="214.0747" x="617.9087" y="290.3247">on('ready'), fetch chats &amp; picUrls</text></g><path d="M207.439,318.3906 L280.563,318.3906 L280.563,325.5234 L270.563,335.5234 L203.939,335.5234 L203.939,321.8906 A3.5,3.5 0 0 1 207.439,318.3906" fill="#EEEEEE" style="stroke:#696969;stroke-width:1.5;"/><rect fill="none" height="46.2656" rx="3.5" ry="3.5" style="stroke:#696969;stroke-width:1;" width="457.1904" x="203.939" y="318.3906"/><text fill="#454645" font-family="sans-serif" font-size="13" font-weight="bold" lengthAdjust="spacing" textLength="31.624" x="218.939" y="331.4575">loop</text><text fill="#696969" font-family="sans-serif" font-size="11" font-weight="bold" lengthAdjust="spacing" textLength="160.2197" x="295.563" y="330.6011">[Poll Status until "ready"]</text><g class="message" data-participant-1="App" data-participant-2="NodeServer"><polygon fill="#454645" points="580.8633,352.6563,590.8633,356.6563,580.8633,360.6563,584.8633,356.6563" style="stroke:#454645;stroke-width:1;"/><line style="stroke:#454645;stroke-width:1;" x1="287.2441" x2="586.8633" y1="356.6563" y2="356.6563"/><text fill="#000000" font-family="sans-serif" font-size="13" font-weight="bold" lengthAdjust="spacing" textLength="9.0454" x="294.2441" y="351.5903">6</text><text fill="#000000" font-family="sans-serif" font-size="13" lengthAdjust="spacing" textLength="147.8433" x="307.2896" y="351.5903">GET /initiate-whatsapp</text></g><g class="message" data-participant-1="App" data-participant-2="NodeServer"><polygon fill="#454645" points="580.8633,388.7891,590.8633,392.7891,580.8633,396.7891,584.8633,392.7891" style="stroke:#454645;stroke-width:1;"/><line style="stroke:#454645;stroke-width:1;" x1="287.2441" x2="586.8633" y1="392.7891" y2="392.7891"/><text fill="#000000" font-family="sans-serif" font-size="13" font-weight="bold" lengthAdjust="spacing" textLength="9.0454" x="294.2441" y="387.7231">7</text><text fill="#000000" font-family="sans-serif" font-size="13" lengthAdjust="spacing" textLength="96.002" x="307.2896" y="387.7231">GET /get-chats</text></g><g class="message" data-participant-1="NodeServer" data-participant-2="App"><polygon fill="#454645" points="298.2441,417.9219,288.2441,421.9219,298.2441,425.9219,294.2441,421.9219" style="stroke:#454645;stroke-width:1;"/><line style="stroke:#454645;stroke-width:1;stroke-dasharray:2.0,2.0;" x1="292.2441" x2="591.8633" y1="421.9219" y2="421.9219"/><text fill="#000000" font-family="sans-serif" font-size="13" font-weight="bold" lengthAdjust="spacing" textLength="9.0454" x="304.2441" y="416.856">8</text><text fill="#000000" font-family="sans-serif" font-size="13" lengthAdjust="spacing" textLength="82.8179" x="317.2896" y="416.856">{chats: [...]}</text></g><g class="message" data-participant-1="User" data-participant-2="App"><polygon fill="#454645" points="275.2441,447.0547,285.2441,451.0547,275.2441,455.0547,279.2441,451.0547" style="stroke:#454645;stroke-width:1;"/><line style="stroke:#454645;stroke-width:1;" x1="38.9551" x2="281.2441" y1="451.0547" y2="451.0547"/><text fill="#000000" font-family="sans-serif" font-size="13" font-weight="bold" lengthAdjust="spacing" textLength="9.0454" x="45.9551" y="445.9888">9</text><text fill="#000000" font-family="sans-serif" font-size="13" lengthAdjust="spacing" textLength="91.5586" x="59.0005" y="445.9888">Selects a chat</text></g><path d="M207.439,473.0547 L501.1758,473.0547 L501.1758,480.1875 L491.1758,490.1875 L203.939,490.1875 L203.939,476.5547 A3.5,3.5 0 0 1 207.439,473.0547" fill="#EEEEEE" style="stroke:#696969;stroke-width:1.5;"/><rect fill="none" height="226.0625" rx="3.5" ry="3.5" style="stroke:#696969;stroke-width:1;" width="847.5044" x="203.939" y="473.0547"/><text fill="#454645" font-family="sans-serif" font-size="13" font-weight="bold" lengthAdjust="spacing" textLength="252.2368" x="218.939" y="486.1216">Message Fetching &amp; AI Processing</text><g class="message" data-participant-1="App" data-participant-2="NodeServer"><polygon fill="#454645" points="575.8633,507.3203,585.8633,511.3203,575.8633,515.3203,579.8633,511.3203" style="stroke:#454645;stroke-width:1;"/><line style="stroke:#454645;stroke-width:1;" x1="287.2441" x2="581.8633" y1="511.3203" y2="511.3203"/><text fill="#000000" font-family="sans-serif" font-size="13" font-weight="bold" lengthAdjust="spacing" textLength="18.0908" x="294.2441" y="506.2544">10</text><text fill="#000000" font-family="sans-serif" font-size="13" lengthAdjust="spacing" textLength="233.6763" x="316.335" y="506.2544">POST /fetch-chat-messages (chatId)</text></g><g class="message" data-participant-1="NodeServer" data-participant-2="NodeServer"><line style="stroke:#454645;stroke-width:1;" x1="597.8633" x2="639.8633" y1="540.4531" y2="540.4531"/><line style="stroke:#454645;stroke-width:1;" x1="639.8633" x2="639.8633" y1="540.4531" y2="553.4531"/><line style="stroke:#454645;stroke-width:1;" x1="598.8633" x2="639.8633" y1="553.4531" y2="553.4531"/><polygon fill="#454645" points="608.8633,549.4531,598.8633,553.4531,608.8633,557.4531,604.8633,553.4531" style="stroke:#454645;stroke-width:1;"/><text fill="#000000" font-family="sans-serif" font-size="13" font-weight="bold" lengthAdjust="spacing" textLength="18.0908" x="604.8633" y="535.3872">11</text><text fill="#000000" font-family="sans-serif" font-size="13" lengthAdjust="spacing" textLength="170.9424" x="626.9541" y="535.3872">client.getChatById(chatId)</text></g><g class="message" data-participant-1="NodeServer" data-participant-2="App"><polygon fill="#454645" points="298.2441,578.5859,288.2441,582.5859,298.2441,586.5859,294.2441,582.5859" style="stroke:#454645;stroke-width:1;"/><line style="stroke:#454645;stroke-width:1;stroke-dasharray:2.0,2.0;" x1="292.2441" x2="591.8633" y1="582.5859" y2="582.5859"/><text fill="#000000" font-family="sans-serif" font-size="13" font-weight="bold" lengthAdjust="spacing" textLength="18.0908" x="304.2441" y="577.52">12</text><text fill="#000000" font-family="sans-serif" font-size="13" lengthAdjust="spacing" textLength="254.5283" x="326.335" y="577.52">{messages: [...], characterName: "..."}</text></g><g class="message" data-participant-1="App" data-participant-2="PythonServer"><polygon fill="#454645" points="836.9834,607.7188,846.9834,611.7188,836.9834,615.7188,840.9834,611.7188" style="stroke:#454645;stroke-width:1;"/><line style="stroke:#454645;stroke-width:1;" x1="287.2441" x2="842.9834" y1="611.7188" y2="611.7188"/><text fill="#000000" font-family="sans-serif" font-size="13" font-weight="bold" lengthAdjust="spacing" textLength="18.0908" x="294.2441" y="606.6528">13</text><text fill="#000000" font-family="sans-serif" font-size="13" lengthAdjust="spacing" textLength="360.439" x="316.335" y="606.6528">POST /preprocessing_whats_data (messages, name, id)</text></g><path d="M665,628.2188 L665,661.2188 A3.5,3.5 0 0 0 668.5,664.7188 L1037.5,664.7188 A3.5,3.5 0 0 0 1041,661.2188 L1041,634.7188 L1031,624.7188 L668.5,624.7188 A3.5,3.5 0 0 0 665,628.2188" fill="#7FFFD4" style="stroke:#454645;stroke-width:1.5;"/><path d="M1031,624.7188 L1031,632.9688 A1.75,1.75 0 0 0 1032.75,634.7188 L1041,634.7188 L1031,624.7188" fill="#7FFFD4" style="stroke:#454645;stroke-width:1.5;"/><text fill="#454645" font-family="sans-serif" font-size="13" lengthAdjust="spacing" textLength="246.0732" x="671" y="641.7856">Analyze text, generate Bio &amp; Answers</text><text fill="#454645" font-family="sans-serif" font-size="13" lengthAdjust="spacing" textLength="355.4434" x="671" y="656.9185">using Groq API (LLM). Then save profile &amp; FAISS index.</text><g class="message" data-participant-1="PythonServer" data-participant-2="App"><polygon fill="#454645" points="298.2441,687.1172,288.2441,691.1172,298.2441,695.1172,294.2441,691.1172" style="stroke:#454645;stroke-width:1;"/><line style="stroke:#454645;stroke-width:1;stroke-dasharray:2.0,2.0;" x1="292.2441" x2="852.9834" y1="691.1172" y2="691.1172"/><text fill="#000000" font-family="sans-serif" font-size="13" font-weight="bold" lengthAdjust="spacing" textLength="18.0908" x="304.2441" y="686.0513">14</text><text fill="#000000" font-family="sans-serif" font-size="13" lengthAdjust="spacing" textLength="220.9365" x="326.335" y="686.0513">{processedData: {bio, answers}}</text></g><path d="M13.5,713.1172 L140.4712,713.1172 L140.4712,720.25 L130.4712,730.25 L10,730.25 L10,716.6172 A3.5,3.5 0 0 1 13.5,713.1172" fill="#EEEEEE" style="stroke:#696969;stroke-width:1.5;"/><rect fill="none" height="88.3984" rx="3.5" ry="3.5" style="stroke:#696969;stroke-width:1;" width="509.355" x="10" y="713.1172"/><text fill="#454645" font-family="sans-serif" font-size="13" font-weight="bold" lengthAdjust="spacing" textLength="85.4712" x="25" y="726.1841">Finalization</text><g class="message" data-participant-1="App" data-participant-2="App"><line style="stroke:#454645;stroke-width:1;" x1="287.2441" x2="329.2441" y1="751.3828" y2="751.3828"/><line style="stroke:#454645;stroke-width:1;" x1="329.2441" x2="329.2441" y1="751.3828" y2="764.3828"/><line style="stroke:#454645;stroke-width:1;" x1="288.2441" x2="329.2441" y1="764.3828" y2="764.3828"/><polygon fill="#454645" points="298.2441,760.3828,288.2441,764.3828,298.2441,768.3828,294.2441,764.3828" style="stroke:#454645;stroke-width:1;"/><text fill="#000000" font-family="sans-serif" font-size="13" font-weight="bold" lengthAdjust="spacing" textLength="18.0908" x="294.2441" y="746.3169">15</text><text fill="#000000" font-family="sans-serif" font-size="13" lengthAdjust="spacing" textLength="191.02" x="316.335" y="746.3169">Save Character Profile locally</text></g><g class="message" data-participant-1="App" data-participant-2="User"><polygon fill="#454645" points="49.9551,789.5156,39.9551,793.5156,49.9551,797.5156,45.9551,793.5156" style="stroke:#454645;stroke-width:1;"/><line style="stroke:#454645;stroke-width:1;" x1="43.9551" x2="286.2441" y1="793.5156" y2="793.5156"/><text fill="#000000" font-family="sans-serif" font-size="13" font-weight="bold" lengthAdjust="spacing" textLength="18.0908" x="55.9551" y="788.4497">16</text><text fill="#000000" font-family="sans-serif" font-size="13" lengthAdjust="spacing" textLength="154.9844" x="78.0459" y="788.4497">Navigate to ChatScreen</text></g><!--SRC=[bLJ1Jjj04BtxAwO-G28bxZs7IW4Q50dIb81wQ2iqs8EphRrhTjU1WFZtpgmTS4hIYfooC-CtxxsPtGz-IIN1IjrOr3xooXS42xghIQS49mfpY-K8lYtHkt5LmPoiCnfXMbR6-YZ2sXjTbpTa8qoziN3b-6-5rgjKLGm9iNpMko1EmmozMb4_1dJ0uUswcSae-UMukrsH3JKIQexRfVErNnhTLa9lWiwFvzC6jycrNqMvDNNrIlzCwTzAvt00nnnYW89IhuoEW7z27OQVXDceJJc86wLmQqtvWXE7UW7aybUI8pZzV0aVbLPUeQVXlPGZwvHgrgzM7EsAalZhKS24muXzTrM1QmTVB-2Oyw0qUBAbqbZie9gY3gNtoY-XOlMq0xbBq-ZUeINCreVz0ToIJvUG2bVsfLBfbIrS0CXe7-d26Du5KnImyEXh1xNsge0uW3RklDyXqja_VSt93mFDD-esJZo5z0Y-9qdoytd_K378ZQHXko7dv1pc11CnezcGyHJcrgISuFC-OlCl2sOMB0pSXcK3vA0dnsdMVyVmky1feKZxX3NBfXwjfzaMu4xrczwj0GDHQRarsHcMD8AOe_7pVqRRLTgzInkjbQNgnPRhCC3h33r2RzD-09hR3K3zBNxhQaf66uuQ4R7TQSnxlduatla7Fu2SD5dv_aWPcOjsz_mA_T2rC81JQ-w0Rp_qpixE-mbSBac3mnK1qxnL_9mTm6GyNIpu4cNqa8J6tNOT0rjXb9sm83xVA3C0RFezlp5kIqvdboPoJTKZlZmihPlD2WgpuyrSPCC2nyAaM1JhRddp5CnmfNBfvaruinQf9TBIxWy0]--></g></svg>